<?xml version="1.0" encoding="UTF-8"?><svg id="Layer_2" xmlns="http://www.w3.org/2000/svg" viewBox="0 0 281.23 107.85"><defs><style>.cls-1{fill:#fff;stroke-width:0px;}</style></defs><g id="Camada_1"><path class="cls-1" d="m189.87,9.3c.56.4.82,2.49,2.54,3.05,1.72.56,4.98-.45,6.2-1.62,1.22-1.17,2.18-1.32,1.62-3.46-.56-2.14-1.82-3.81,1.01-3.51,2.85.3,2.85,1.22,4.43.46,1.57-.76,3.71-2.44,4.37-2.29.66.15,1.93-.15,1.22,2.8-.72,2.95-1.12,6.3,3.66,6.71,4.77.4,11.69-1.22,13.62-1.52,1.93-.31,4.73-4.43,5.69-4.73.97-.3,1.78.3,1.78,1.83s-1.22,5.49,1.32,7.42c2.54,1.94,6.91,2.85,8.94,3.41,2.03.56,2.85.61,3.41.76.56.15.1-.25.1-.25,0,0-5.44-1.73-6.36-2.24-.91-.51-5.84-2.44-5.94-3.1-.1-.66-.51-3.1-.25-4.02.25-.92.66-2.7-.05-3.71-.72-1.02-2.08-2.74-2.65-2.8-.55-.05-1.52,1.17-2.89,2.85-1.37,1.68-1.78,2.54-3.25,2.65-1.47.1-4.98,1.01-7.78,1.07-2.79.05-6.04.76-6.81-.05-.76-.81-1.17-1.93-.66-3.81.5-1.89.71-4.68-1.32-4.93-2.04-.25-3.01-.61-4.53.61-1.53,1.22-1.12,1.83-3.45,1.57-2.34-.26-2.45-1.07-4.83-.2-2.39.86-1.12,3.15-1.01,3.61.1.45,2.18,3.61-1.48,4.62-3.66,1.01-3.3,1.63-4.52.41-1.22-1.22-2.03-2.69-3.1-2.54-1.07.15-1.27.05-1.68.51-.41.46,0,.82,0,.82,0,0,2.09-.76,2.64-.36"/><path class="cls-1" d="m281.04,33.4c-.35-1.88-1.98-3.5-3.86-4.52-1.88-1.01-5.49-3.2-6.71-3.86-1.22-.66-4.02-2.03-4.98-2.24-.97-.2-3.51-1.22-6.35-1.93-2.85-.72-4.01-1.02-4.58-1.33-.55-.3-1.01-.5-1.17-.35l-.11.14c-.06.14-.14.27.31.52.46.25,2.14.61,3.08,1.13.91.52,8.96,2.55,10.25,3.45.92.65,10.11,4.22,11.84,7.32,1.73,3.1.45,5.7-1.37,8.34-1.83,2.64-7.37,8.38-8.24,10.83-.86,2.44-.76,12.05-2.54,14.74-1.79,2.69-1.68,6.55-8.08,11.18,0,0-.71.35-1.63.46-.92.1-4.83.36-6.15.81-1.32.45-3.97,1.52-5.03,2.6-1.07,1.06-4.42,7.01-4.93,8.49-.51,1.47-6.3,10.88-7.12,11.79-.81.91-2.8,3.45-3.15,3.86-.36.41-.26.41-.56-.1-.3-.51-2.64-4.27-4.32-4.58-1.68-.3-4.93-1.93-5.64-2.49-.72-.56-1.12-1.68-.42-2.29.72-.61,5.34-4.02,6-4.47.66-.46,2.95-2.65,3-3.61.05-.84-.2-2.14-.78-3h-1.27c.19.17.34.36.52.76.41.92,1.01,1.53.15,2.7-.87,1.17-2.24,1.78-3.76,2.79-1.53,1.01-3.56,1.78-4.42,3.3-.87,1.53-1.88,2.64-.87,4.07,1.02,1.43,2.24,2.29,3.61,2.74,1.37.45,4.02,1.53,4.48,2.34.46.82,1.88,1.43,2.59,2.64.71,1.22.71,2.03,1.47,2.18.76.16.46-.26,1.12-.97.66-.71,2.49-3.35,3.46-4.47.96-1.12,3.35-3.66,4.72-6,1.37-2.33,1.68-3.15,2.39-4.73.71-1.57,1.94-6.2,3.66-7.52,1.73-1.32,1.73-3.66,6.31-4.02,4.57-.36,7.06-1.42,8.54-2.29,1.47-.87,5.75-6.15,6.81-8.44,1.07-2.29,2.33-6.92,2.49-8.59.15-1.68.26-6.61.56-7.93.3-1.32,4.32-7.43,7.77-11.39,3.46-3.97,3.26-6.2,2.9-8.08"/><path class="cls-1" d="m199,47.16c-.51-.51-1.22-1.24-1.32-2.41-.12-1.57-.36-3.66-1.9-3.96-1.54-.29-3.37.07-4.18.73-.81.66-2.2,1.69-2.86,1.83-.66.15-1.39,1.03-3.22.74-1.83-.29-2.13-3.08-2.27-3.81-.15-.73-1.62-2.93-4.69-1.32-3.08,1.61-2.78.74-4.1-.95-1.32-1.69.07-7.03,2.71-8.57,2.63-1.54,4.18-1.9,4.98-2.63.8-.73,2.78-1.98,2.12-6.37,0,0-.51-5.13-.73-6.23-.22-1.1-.36-2.05-.36-2.56s-.3-.95-.3-.95c0,0-.29-.22-.21,1.1.07,1.32.07,4.03.21,5.57.15,1.54.94,3.01.57,4.76-.36,1.76-.12,1.76-1.29,2.56-1.17.81-.81.66-2.49,1.61-1.68.95-4.32,2.13-5.64,4.39-1.32,2.27-2.42,6.89-.22,9.74,2.19,2.85,3.81,1.9,4.76,1.24.95-.66,1.46-1.61,2.2-1.1.73.51.88.88,1.1,2.34.22,1.46.51,2.42,2.34,2.86,1.83.44,3.51.73,5.49-.44,1.98-1.17,3.52-2.2,4.47-2.49.96-.29,1.31.15,1.61,1.69.29,1.54,2.13,4.11,3.5,4.32.21.03.46.11.74.2v-1.29c-.44-.2-.83-.41-1.02-.6"/><path class="cls-1" d="m37.64,48.81c-1.71-3.84-3.41-7.67-5.11-11.48-3-6.74-6.02-13.52-9.06-20.31-.22-.49-.55-.87-.99-1.15-.86-.53-1.88-.54-2.79,0-.45.27-.81.64-1.09,1.16-3.29,7.48-6.31,14.27-9.23,20.76-3.18,7.09-6.28,14.06-9.21,20.68-.27.56-.14.95.01,1.18.21.31.55.47.96.47h3.42c.5,0,.88-.27,1-.71,2.2-5.03,4.59-10.47,7.52-17.1,2.44-5.51,4.95-11.28,7.47-17.13.13-.26.33-.56.56-.56s.43.31.54.53c2.31,5.52,4.26,10.1,6.13,14.42,2.04,4.75,4.1,9.56,6.19,14.45.15.29.19.53.13.63-.07.11-.3.18-.62.18H11.65c-.34,0-.6.1-.73.25-.07.07-.16.15-.24.24l-.09.09-.04.12c-.21.57-.43,1.09-.64,1.52-.24.48-.47.95-.67,1.4-.22.47-.23.86-.03,1.18.2.31.55.47,1.06.47h29.8c.76,0,1.3-.24,1.59-.71.22-.33.38-.9-.05-1.69l-3.96-8.9Z"/><path class="cls-1" d="m83.44,37.89h-.02s0-.05,0-.05c0,0,.01-.01.02-.02,2.13-.88,3.85-2.31,5.12-4.24,1.26-1.93,1.9-4.11,1.9-6.49v-.26c0-1.6-.3-3.12-.9-4.53-.59-1.4-1.42-2.66-2.46-3.73-1.04-1.06-2.29-1.91-3.7-2.53-1.43-.62-2.98-.94-4.61-.94h-25.23c-.74,0-1.22.45-1.22,1.15v42.66c0,.75.47,1.22,1.22,1.22h2.98c.7,0,1.15-.48,1.15-1.22V20.43h21.1c.88,0,1.73.17,2.5.5.76.32,1.44.78,2.03,1.37.58.58,1.04,1.25,1.4,2.04.34.77.52,1.61.52,2.48-.04,2.49-1.26,4.61-3.74,6.5-.94.55-2.08.95-3.37,1.22-1.35.26-2.86.4-4.49.4h-11.66c-.66,0-1.09.43-1.09,1.09v3.1c0,.66.43,1.09,1.09,1.09h11.66c3.2,0,5.85.57,7.87,1.68,2.43,1.72,3.64,3.86,3.72,6.55,0,.88-.17,1.7-.51,2.45-.37.78-.84,1.45-1.41,2.02-.58.58-1.26,1.04-2.03,1.37-.79.33-1.63.5-2.5.5h-16.86c-.75,0-1.21.44-1.21,1.15v2.97c0,.75.46,1.22,1.21,1.22h17.05c1.59,0,3.11-.31,4.54-.93,1.41-.62,2.65-1.46,3.67-2.51,1.02-1.04,1.84-2.28,2.43-3.67.6-1.4.91-2.91.91-4.51,0-2.3-.65-4.45-1.94-6.38-1.28-1.93-3-3.36-5.14-4.24"/><path class="cls-1" d="m103.82,15.08h-2.98c-.7,0-1.15.45-1.15,1.15v42.73c0,.7.45,1.15,1.15,1.15h2.98c.66,0,1.09-.45,1.09-1.15V16.24c0-.7-.43-1.15-1.09-1.15"/><path class="cls-1" d="m148.29,19.95c-1.48-1.48-3.23-2.67-5.21-3.54-2-.88-4.13-1.32-6.35-1.32h-20.1c-.5,0-.93.19-1.26.55-.3.34-.46.77-.46,1.24v42.1c0,.7.45,1.15,1.15,1.15h3.04c.28,0,.55-.11.74-.28.27-.21.42-.52.42-.87V20.43h16.47c1.47,0,2.89.28,4.21.84,1.34.57,2.52,1.34,3.5,2.29,1,.97,1.81,2.12,2.41,3.44.6,1.31.92,2.73.96,4.21.04,1.47-.2,2.9-.72,4.24-.52,1.33-1.26,2.53-2.2,3.56-.95,1.02-2.07,1.87-3.35,2.51-1.28.64-2.68,1-4.12,1.08h-12.99c-.7,0-1.15.45-1.15,1.16v2.98c0,.7.45,1.15,1.15,1.15h13.16c2.13-.13,4.17-.65,6.07-1.54,1.9-.89,3.56-2.09,4.93-3.55,1.37-1.46,2.47-3.17,3.28-5.08.81-1.92,1.22-4,1.22-6.19s-.43-4.35-1.28-6.34c-.86-1.99-2.04-3.75-3.52-5.22"/><path class="cls-1" d="m187.75,54.78h-14.39c-.84,0-1.64-.16-2.37-.47-.74-.31-1.39-.74-1.94-1.28-.56-.54-.99-1.17-1.3-1.9-.3-.72-.46-1.52-.46-2.37V16.3c0-.74-.45-1.22-1.15-1.22h-2.91c-.75,0-1.21.47-1.21,1.22v32.46c0,1.56.3,3.05.9,4.41.59,1.37,1.41,2.58,2.43,3.6,1.02,1.02,2.23,1.84,3.59,2.43,1.37.6,2.85.9,4.42.9h14.39c.7,0,1.15-.45,1.15-1.15v-3.04c0-.7-.45-1.15-1.15-1.15"/><path class="cls-1" d="m239.63,57.7c-2.59-5.82-5.16-11.61-7.72-17.35l-2.8-6.29c-2.52-5.66-5.05-11.33-7.6-17.04-.22-.49-.56-.87-.99-1.14-.86-.54-1.9-.53-2.78,0-.45.26-.8.63-1.09,1.16-2.93,6.66-5.95,13.45-9.22,20.76-3.41,7.58-6.42,14.35-9.22,20.68-.29.57-.15.97.02,1.2.15.21.44.46.95.46h3.42c.61,0,.9-.36.99-.72,2.53-5.77,5.04-11.47,7.53-17.09,2.44-5.52,4.96-11.29,7.47-17.12.13-.26.33-.57.56-.57.24,0,.45.35.54.53,2.02,4.82,4.08,9.68,6.12,14.43,2.29,5.3,4.31,10.02,6.2,14.45.14.29.19.53.13.63-.1.16-.43.18-.62.18h-21.81c-.32,0-.57.08-.76.27l-.31.31-.04.12c-.22.6-.43,1.1-.63,1.52-.24.48-.47.95-.68,1.41-.22.47-.23.86-.02,1.18.2.31.55.47,1.05.47h29.8c.76,0,1.3-.24,1.6-.71.21-.33.37-.9-.07-1.71"/><path class="cls-1" d="m3.36,70.52l.84,2.99h-1.68l.84-2.99Zm-.85-1.17l-2.14,6.82h1.4l.42-1.43h2.32l.43,1.43h1.42l-2.14-6.82h-1.72Z"/><path class="cls-1" d="m7.79,76.16c-.37-.04-.66-.09-.85-.16v-.8h2.19c.2,0,.35-.03.43-.08.09-.06.13-.16.13-.32v-.16c0-.13-.04-.23-.12-.29-.08-.07-.23-.1-.44-.1h-.77c-.46,0-.83-.11-1.1-.32-.27-.21-.41-.55-.41-1.03v-.29c0-.49.15-.85.45-1.09.3-.24.81-.35,1.54-.35.3,0,.63.02.99.07.36.05.63.1.81.16v.8h-2.07c-.19,0-.33.03-.41.09-.09.06-.13.17-.13.32v.15c0,.15.05.26.14.31.09.05.25.08.46.08h.79c.49,0,.86.11,1.09.34.24.22.36.55.36.96v.44c0,.48-.17.83-.5,1.03-.33.2-.84.3-1.51.3-.34,0-.69-.02-1.06-.06"/><path class="cls-1" d="m12.44,76.16c-.37-.04-.66-.09-.85-.16v-.8h2.19c.2,0,.35-.03.43-.08.09-.06.13-.16.13-.32v-.16c0-.13-.04-.23-.12-.29-.08-.07-.23-.1-.44-.1h-.77c-.46,0-.83-.11-1.1-.32-.27-.21-.41-.55-.41-1.03v-.29c0-.49.15-.85.45-1.09.3-.24.81-.35,1.54-.35.3,0,.63.02.99.07s.63.1.81.16v.8h-2.07c-.19,0-.33.03-.41.09-.09.06-.13.17-.13.32v.15c0,.15.05.26.14.31.09.05.25.08.46.08h.79c.49,0,.86.11,1.09.34.24.22.36.55.36.96v.44c0,.48-.17.83-.5,1.03-.33.2-.84.3-1.51.3-.34,0-.69-.02-1.06-.06"/><path class="cls-1" d="m19.02,75.03c.12-.07.22-.2.28-.41.06-.21.09-.52.09-.94s-.03-.74-.09-.94c-.06-.21-.15-.34-.28-.41-.12-.06-.3-.1-.54-.1s-.41.03-.53.1c-.12.07-.22.2-.28.41-.06.21-.09.52-.09.94s.03.74.09.94c.06.21.15.34.28.41.12.06.3.1.53.1s.42-.03.54-.1m-1.87.95c-.33-.16-.56-.42-.71-.78s-.23-.87-.23-1.52.08-1.19.23-1.55c.15-.36.39-.62.71-.76.33-.14.77-.22,1.33-.22s1.01.08,1.34.23c.33.15.56.41.71.77.15.37.23.88.23,1.53s-.07,1.17-.22,1.53c-.15.36-.38.62-.71.77-.33.15-.77.23-1.35.23s-1-.08-1.33-.23"/><path class="cls-1" d="m22.05,75.66c-.36-.37-.54-1.02-.54-1.94,0-.66.08-1.17.24-1.55.16-.37.39-.64.7-.79s.7-.23,1.17-.23c.6,0,1.17.08,1.72.23v.78h-1.3c-.29,0-.52.04-.69.13-.17.09-.29.24-.36.46-.08.22-.12.54-.12.96s.04.72.12.94c.08.21.2.36.36.43.17.08.4.12.71.12h1.35v.77c-.23.07-.52.14-.86.18-.34.05-.66.07-.98.07-.66,0-1.17-.19-1.53-.56"/><path class="cls-1" d="m26.17,71.22h1.36v4.95h-1.36v-4.95Zm.02-.78s-.05-.08-.05-.13v-.9c0-.13.06-.19.19-.19h1.05c.06,0,.1.02.13.06.03.04.05.08.05.14v.9c0,.12-.06.18-.18.18h-1.05c-.06,0-.11-.02-.14-.05"/><path class="cls-1" d="m30.87,75.17c.21-.06.34-.11.4-.14v-1.15l-.83.05c-.47.04-.7.24-.7.61v.2c0,.35.2.52.61.52.14,0,.32-.03.53-.1m-2.15.71c-.23-.22-.35-.53-.35-.92v-.44c0-.39.14-.71.41-.94.27-.23.68-.35,1.22-.35h1.26v-.34c0-.17-.03-.3-.08-.39-.05-.09-.16-.17-.31-.21-.15-.05-.38-.07-.68-.07h-1.48v-.79c.61-.18,1.27-.28,1.98-.28.65,0,1.14.12,1.46.37.32.25.48.67.48,1.28v3.36h-1.08l-.22-.53c-.07.07-.19.15-.36.24-.17.09-.38.17-.61.24-.24.07-.48.1-.72.1-.38,0-.69-.11-.92-.34"/><path class="cls-1" d="m36.01,76.2l-.28.43c.19.02.34.08.45.18.11.1.17.25.17.43,0,.23-.08.41-.25.54-.17.13-.41.19-.74.19h-.44v-.56l.17-.03c.25-.02.38-.13.38-.31s-.14-.3-.42-.33l.34-.54c-.6-.03-1.06-.24-1.39-.62-.33-.38-.49-1.01-.49-1.88,0-.66.08-1.17.24-1.55.16-.37.39-.64.7-.79.31-.15.7-.23,1.17-.23.6,0,1.17.08,1.72.23v.78h-1.3c-.29,0-.52.04-.69.13-.17.09-.29.24-.36.46-.08.22-.12.54-.12.96s.04.72.12.93c.08.21.2.36.36.43.17.08.4.12.71.12h1.35v.77c-.43.14-.9.22-1.4.24"/><path class="cls-1" d="m40.45,75.17c.21-.06.34-.11.4-.14v-1.15l-.83.05c-.47.04-.7.24-.7.61v.2c0,.35.2.52.61.52.14,0,.32-.03.53-.1m-1.67-5.72c.17-.19.4-.29.67-.29.15,0,.29.02.41.06.12.04.25.1.4.18.13.07.24.12.31.14.07.03.15.04.23.04.12,0,.22-.04.29-.12.07-.08.1-.2.11-.36h.68c-.02.41-.11.71-.27.92-.16.21-.39.31-.68.31-.15,0-.28-.02-.41-.06-.12-.04-.26-.1-.42-.18-.11-.06-.21-.11-.29-.14-.08-.03-.16-.05-.24-.05-.12,0-.21.04-.28.12-.07.08-.11.19-.12.32h-.68c.03-.42.12-.72.3-.91m-.48,6.43c-.23-.22-.35-.53-.35-.92v-.44c0-.39.14-.71.41-.94.27-.23.68-.35,1.22-.35h1.26v-.34c0-.17-.03-.3-.08-.39-.06-.09-.16-.17-.31-.21-.15-.05-.38-.07-.68-.07h-1.48v-.79c.61-.18,1.27-.28,1.98-.28.65,0,1.14.12,1.46.37.32.25.48.67.48,1.28v3.36h-1.08l-.22-.53c-.07.07-.19.15-.36.24-.17.09-.38.17-.61.24-.24.07-.48.1-.72.1-.38,0-.69-.11-.92-.34"/><path class="cls-1" d="m45.9,75.03c.12-.07.22-.2.28-.41.06-.21.09-.52.09-.94s-.03-.74-.09-.94c-.06-.21-.15-.34-.28-.41-.12-.06-.3-.1-.54-.1s-.41.03-.53.1c-.12.07-.22.2-.28.41-.06.21-.09.52-.09.94s.03.74.09.94c.06.21.15.34.28.41.12.06.3.1.53.1s.42-.03.54-.1m-1.87.95c-.33-.16-.56-.42-.71-.78-.15-.36-.23-.87-.23-1.52s.07-1.19.23-1.55c.15-.36.39-.62.71-.76.33-.14.77-.22,1.33-.22s1.01.08,1.34.23c.33.15.56.41.71.77.15.37.23.88.23,1.53s-.07,1.17-.22,1.53c-.15.36-.38.62-.71.77-.33.15-.77.23-1.35.23s-1-.08-1.33-.23"/><path class="cls-1" d="m53.74,74.94c.52,0,.78-.3.78-.89,0-.26-.07-.46-.22-.61-.15-.15-.33-.23-.57-.23h-1.4v1.73h1.4Zm-.07-2.78c.2,0,.35-.07.47-.22.11-.15.17-.34.17-.59,0-.27-.06-.47-.18-.59-.12-.12-.28-.18-.47-.18h-1.31v1.59h1.33Zm-2.69-2.81h2.68c1.3,0,1.94.6,1.94,1.79,0,.41-.08.74-.25.99-.17.25-.4.42-.7.5.33.08.61.26.83.53.22.28.34.65.34,1.12,0,.68-.17,1.16-.51,1.45-.34.29-.85.43-1.53.43h-2.8v-6.82Z"/><path class="cls-1" d="m56.68,71.22h1.05l.31.76c.2-.26.41-.46.63-.6.22-.14.48-.22.77-.22.16,0,.29.02.41.05v1.4c-.32-.03-.51-.05-.58-.05-.26,0-.49.04-.68.13-.19.09-.37.22-.54.41v3.08h-1.36v-4.95Z"/><path class="cls-1" d="m62.68,75.17c.21-.06.34-.11.4-.14v-1.15l-.83.05c-.47.04-.7.24-.7.61v.2c0,.35.2.52.61.52.14,0,.32-.03.52-.1m-2.15.71c-.23-.22-.35-.53-.35-.92v-.44c0-.39.14-.71.41-.94.27-.23.68-.35,1.22-.35h1.26v-.34c0-.17-.03-.3-.08-.39-.06-.09-.16-.17-.31-.21-.15-.05-.38-.07-.68-.07h-1.48v-.79c.61-.18,1.27-.28,1.98-.28.65,0,1.14.12,1.46.37.32.25.48.67.48,1.28v3.36h-1.08l-.22-.53c-.07.07-.19.15-.36.24-.17.09-.38.17-.61.24-.24.07-.48.1-.72.1-.38,0-.69-.11-.92-.34"/><path class="cls-1" d="m66.2,76.16c-.37-.04-.66-.09-.85-.16v-.8h2.19c.2,0,.35-.03.43-.08.09-.06.13-.16.13-.32v-.16c0-.13-.04-.23-.12-.29-.08-.07-.23-.1-.44-.1h-.77c-.46,0-.83-.11-1.1-.32-.27-.21-.41-.55-.41-1.03v-.29c0-.49.15-.85.45-1.09.3-.24.81-.35,1.54-.35.3,0,.63.02.99.07s.63.1.81.16v.8h-2.07c-.19,0-.33.03-.41.09-.09.06-.13.17-.13.32v.15c0,.15.05.26.14.31.09.05.25.08.46.08h.79c.49,0,.86.11,1.09.34.24.22.35.55.35.96v.44c0,.48-.17.83-.5,1.03-.33.2-.84.3-1.51.3-.34,0-.69-.02-1.06-.06"/><path class="cls-1" d="m70.12,71.22h1.36v4.95h-1.36v-4.95Zm.02-.78s-.05-.08-.05-.13v-.9c0-.13.06-.19.19-.19h1.05c.06,0,.1.02.13.06.03.04.05.08.05.14v.9c0,.12-.06.18-.18.18h-1.05c-.06,0-.11-.02-.14-.05"/><path class="cls-1" d="m72.91,75.79c-.25-.26-.38-.67-.38-1.22v-5.44h1.36v5.23c0,.26.04.45.12.57.08.11.21.18.4.21l.38.06v.99h-.71c-.52,0-.91-.13-1.17-.39"/><path class="cls-1" d="m77.73,73.36c.19,0,.33-.04.41-.12.08-.08.12-.21.12-.39,0-.27-.06-.46-.18-.57-.12-.11-.33-.16-.63-.16-.22,0-.38.04-.5.11-.12.07-.21.2-.26.37-.06.18-.08.43-.08.76h1.12Zm-1.55,2.63c-.32-.15-.55-.4-.7-.76-.14-.36-.22-.87-.22-1.53s.07-1.2.2-1.56c.14-.36.36-.62.67-.77.31-.15.75-.22,1.31-.22.5,0,.9.05,1.19.15.29.1.5.27.63.52.13.25.2.59.2,1.04,0,.48-.14.82-.41,1.02-.27.2-.67.3-1.19.3h-1.24c.01.26.05.47.12.61.07.15.19.25.36.31.17.06.42.1.76.1h1.45v.8c-.33.07-.62.12-.88.16-.26.04-.57.05-.92.05-.56,0-1-.07-1.32-.22"/><path class="cls-1" d="m80.36,71.22h1.36v4.95h-1.36v-4.95Zm.02-.78s-.05-.08-.05-.13v-.9c0-.13.06-.19.19-.19h1.05c.06,0,.1.02.13.06.03.04.05.08.05.14v.9c0,.12-.06.18-.18.18h-1.05c-.06,0-.11-.02-.14-.05"/><path class="cls-1" d="m82.77,71.22h1.05l.31.76c.2-.26.41-.46.63-.6.22-.14.48-.22.77-.22.16,0,.29.02.41.05v1.4c-.32-.03-.51-.05-.58-.05-.26,0-.49.04-.68.13-.19.09-.37.22-.54.41v3.08h-1.36v-4.95Z"/><path class="cls-1" d="m88.77,75.17c.21-.06.34-.11.4-.14v-1.15l-.83.05c-.47.04-.7.24-.7.61v.2c0,.35.2.52.61.52.14,0,.32-.03.52-.1m-2.15.71c-.23-.22-.35-.53-.35-.92v-.44c0-.39.14-.71.41-.94.27-.23.68-.35,1.22-.35h1.26v-.34c0-.17-.03-.3-.08-.39-.06-.09-.16-.17-.31-.21-.15-.05-.38-.07-.68-.07h-1.48v-.79c.61-.18,1.27-.28,1.98-.28.65,0,1.14.12,1.46.37.32.25.48.67.48,1.28v3.36h-1.08l-.22-.53c-.07.07-.19.15-.36.24-.17.09-.38.17-.61.24-.24.07-.48.1-.72.1-.38,0-.69-.11-.92-.34"/><path class="cls-1" d="m96.91,74.85v-2.49c-.16-.06-.3-.11-.43-.14-.13-.03-.26-.05-.39-.05-.24,0-.43.04-.56.12-.13.08-.23.23-.29.45-.06.22-.09.53-.09.94s.03.68.09.89.15.35.28.43c.13.08.3.12.52.12.29,0,.59-.09.87-.28m-2.69.79c-.29-.39-.44-1.02-.44-1.9,0-.63.06-1.13.17-1.5.11-.37.31-.65.58-.83.27-.18.64-.27,1.11-.27.41,0,.83.08,1.26.23v-2.24h1.37v7.03h-1.15l-.22-.47c-.17.15-.38.27-.63.37-.25.1-.49.15-.73.15-.6,0-1.04-.19-1.33-.58"/><path class="cls-1" d="m101.58,75.17c.21-.06.34-.11.4-.14v-1.15l-.83.05c-.47.04-.7.24-.7.61v.2c0,.35.2.52.61.52.14,0,.32-.03.52-.1m-2.15.71c-.23-.22-.35-.53-.35-.92v-.44c0-.39.14-.71.41-.94.27-.23.68-.35,1.22-.35h1.26v-.34c0-.17-.03-.3-.08-.39-.06-.09-.16-.17-.31-.21-.15-.05-.38-.07-.68-.07h-1.48v-.79c.61-.18,1.27-.28,1.98-.28.65,0,1.14.12,1.46.37.32.25.48.67.48,1.28v3.36h-1.08l-.22-.53c-.07.07-.19.15-.36.24-.17.09-.38.17-.61.24-.24.07-.48.1-.72.1-.38,0-.69-.11-.92-.34"/><path class="cls-1" d="m105.1,76.16c-.37-.04-.66-.09-.85-.16v-.8h2.19c.2,0,.35-.03.43-.08.09-.06.13-.16.13-.32v-.16c0-.13-.04-.23-.12-.29-.08-.07-.23-.1-.44-.1h-.77c-.46,0-.83-.11-1.1-.32-.27-.21-.41-.55-.41-1.03v-.29c0-.49.15-.85.45-1.09.3-.24.81-.35,1.54-.35.3,0,.63.02.99.07.36.05.63.1.81.16v.8h-2.07c-.19,0-.33.03-.41.09-.09.06-.13.17-.13.32v.15c0,.15.05.26.14.31.09.05.25.08.46.08h.79c.49,0,.86.11,1.09.34.24.22.36.55.36.96v.44c0,.48-.17.83-.5,1.03-.33.2-.84.3-1.51.3-.34,0-.69-.02-1.06-.06"/><rect class="cls-1" x="111.46" y="69.35" width="1.36" height="6.82"/><path class="cls-1" d="m113.94,71.22h1.12l.24.51c.2-.17.45-.31.73-.42.28-.11.56-.17.83-.17.56,0,.95.16,1.19.48.23.32.35.75.35,1.29v3.26h-1.36v-3.09c0-.23-.06-.41-.19-.53-.13-.12-.3-.18-.52-.18-.34,0-.68.12-1.02.37v3.44h-1.36v-4.95Z"/><path class="cls-1" d="m122.4,74.85v-2.49c-.16-.06-.3-.11-.43-.14-.13-.03-.26-.05-.39-.05-.24,0-.43.04-.56.12-.13.08-.23.23-.29.45-.06.22-.09.53-.09.94s.03.68.09.89c.06.21.15.35.28.43.13.08.3.12.52.12.29,0,.59-.09.87-.28m-2.69.79c-.29-.39-.44-1.02-.44-1.9,0-.63.06-1.13.17-1.5.11-.37.31-.65.58-.83.27-.18.64-.27,1.11-.27.41,0,.83.08,1.26.23v-2.24h1.37v7.03h-1.15l-.22-.47c-.17.15-.38.27-.63.37-.25.1-.49.15-.73.15-.6,0-1.04-.19-1.33-.58"/><path class="cls-1" d="m127.33,69.06h1.1l-1.06,1.29h-.8l.76-1.29Zm-2.19,6.76c-.25-.26-.37-.63-.37-1.11v-3.5h1.36v3.1c0,.26.06.45.18.55.12.1.3.15.54.15.17,0,.35-.03.53-.1.18-.06.34-.15.48-.26v-3.44h1.37v4.95h-1.13l-.24-.51c-.57.38-1.13.56-1.68.56-.45,0-.8-.13-1.05-.4"/><path class="cls-1" d="m131.01,76.16c-.37-.04-.66-.09-.85-.16v-.8h2.19c.2,0,.35-.03.43-.08.09-.06.13-.16.13-.32v-.16c0-.13-.04-.23-.12-.29-.08-.07-.23-.1-.44-.1h-.77c-.46,0-.83-.11-1.1-.32-.27-.21-.41-.55-.41-1.03v-.29c0-.49.15-.85.45-1.09.3-.24.81-.35,1.54-.35.3,0,.63.02.99.07s.63.1.81.16v.8h-2.07c-.19,0-.33.03-.41.09-.09.06-.13.17-.13.32v.15c0,.15.05.26.14.31.09.05.25.08.46.08h.79c.49,0,.86.11,1.09.34.24.22.35.55.35.96v.44c0,.48-.17.83-.5,1.03-.33.2-.84.3-1.51.3-.34,0-.69-.02-1.06-.06"/><path class="cls-1" d="m135.87,76c-.23-.11-.4-.29-.51-.55s-.15-.6-.14-1.04l.05-2.09h-.77v-.88l.82-.22.18-1.38h1.08v1.38h1.16v1.1h-1.16v2.08c0,.25.04.42.13.52.09.1.21.16.36.18l.63.06v1.01h-.89c-.39,0-.7-.06-.93-.17"/><path class="cls-1" d="m138.51,71.22h1.05l.31.76c.2-.26.41-.46.63-.6.22-.14.48-.22.77-.22.16,0,.29.02.41.05v1.4c-.32-.03-.51-.05-.58-.05-.26,0-.49.04-.68.13-.19.09-.37.22-.54.41v3.08h-1.36v-4.95Z"/><path class="cls-1" d="m142.4,71.22h1.36v4.95h-1.36v-4.95Zm.02-.78s-.05-.08-.05-.13v-.9c0-.13.06-.19.19-.19h1.05c.06,0,.1.02.13.06.03.04.05.08.05.14v.9c0,.12-.06.18-.18.18h-1.05c-.06,0-.11-.02-.14-.05"/><path class="cls-1" d="m147.1,75.17c.21-.06.34-.11.4-.14v-1.15l-.83.05c-.47.04-.7.24-.7.61v.2c0,.35.2.52.61.52.14,0,.32-.03.53-.1m-2.15.71c-.23-.22-.35-.53-.35-.92v-.44c0-.39.14-.71.41-.94.27-.23.68-.35,1.22-.35h1.26v-.34c0-.17-.03-.3-.08-.39-.06-.09-.16-.17-.31-.21-.15-.05-.38-.07-.68-.07h-1.48v-.79c.61-.18,1.27-.28,1.98-.28.65,0,1.14.12,1.46.37.32.25.48.67.48,1.28v3.36h-1.08l-.22-.53c-.07.07-.19.15-.36.24-.17.09-.38.17-.61.24-.24.07-.48.1-.72.1-.38,0-.69-.11-.92-.34"/><path class="cls-1" d="m150.62,76.16c-.37-.04-.66-.09-.85-.16v-.8h2.19c.2,0,.35-.03.43-.08.09-.06.13-.16.13-.32v-.16c0-.13-.04-.23-.12-.29-.08-.07-.23-.1-.44-.1h-.77c-.46,0-.83-.11-1.1-.32-.27-.21-.41-.55-.41-1.03v-.29c0-.49.15-.85.45-1.09.3-.24.81-.35,1.54-.35.3,0,.63.02.99.07s.63.1.81.16v.8h-2.07c-.19,0-.33.03-.41.09-.09.06-.13.17-.13.32v.15c0,.15.05.26.14.31.09.05.25.08.46.08h.79c.49,0,.86.11,1.09.34.24.22.35.55.35.96v.44c0,.48-.17.83-.5,1.03-.33.2-.84.3-1.51.3-.34,0-.69-.02-1.06-.06"/><path class="cls-1" d="m159.89,74.85v-2.49c-.16-.06-.3-.11-.43-.14-.13-.03-.26-.05-.39-.05-.24,0-.42.04-.56.12-.13.08-.23.23-.29.45-.06.22-.09.53-.09.94s.03.68.09.89c.06.21.15.35.28.43.13.08.3.12.52.12.29,0,.59-.09.87-.28m-2.69.79c-.29-.39-.44-1.02-.44-1.9,0-.63.06-1.13.17-1.5.11-.37.31-.65.58-.83.27-.18.64-.27,1.11-.27.41,0,.83.08,1.26.23v-2.24h1.37v7.03h-1.15l-.22-.47c-.17.15-.38.27-.63.37-.25.1-.49.15-.73.15-.6,0-1.04-.19-1.33-.58"/><path class="cls-1" d="m164.6,73.36c.19,0,.33-.04.41-.12.08-.08.12-.21.12-.39,0-.27-.06-.46-.18-.57-.12-.11-.33-.16-.63-.16-.22,0-.38.04-.5.11-.12.07-.21.2-.26.37-.06.18-.08.43-.08.76h1.12Zm-1.55,2.63c-.32-.15-.55-.4-.7-.76-.14-.36-.22-.87-.22-1.53s.07-1.2.2-1.56c.13-.36.36-.62.67-.77.31-.15.75-.22,1.31-.22.5,0,.9.05,1.19.15.29.1.5.27.63.52.13.25.2.59.2,1.04,0,.48-.14.82-.41,1.02s-.67.3-1.19.3h-1.24c.01.26.05.47.12.61.07.15.19.25.36.31.17.06.42.1.76.1h1.45v.8c-.33.07-.62.12-.88.16-.26.04-.57.05-.92.05-.56,0-1-.07-1.32-.22"/><path class="cls-1" d="m172.39,72.86c.25,0,.43-.09.56-.28.13-.18.19-.48.19-.88,0-.75-.24-1.12-.72-1.12h-1.38v2.29h1.35Zm-2.72-3.51h2.87c.57,0,1.04.16,1.41.48.37.32.55.94.55,1.86,0,1.6-.64,2.39-1.91,2.39-.2,0-.45-.02-.76-.05-.31-.03-.58-.07-.8-.1v2.23h-1.36v-6.82Z"/><path class="cls-1" d="m175.33,71.22h1.05l.31.76c.2-.26.41-.46.63-.6.22-.14.48-.22.77-.22.16,0,.29.02.4.05v1.4c-.32-.03-.51-.05-.58-.05-.26,0-.49.04-.68.13-.19.09-.37.22-.54.41v3.08h-1.36v-4.95Z"/><path class="cls-1" d="m181.89,75.03c.12-.07.22-.2.28-.41.06-.21.09-.52.09-.94s-.03-.74-.09-.94c-.06-.21-.15-.34-.28-.41-.12-.06-.3-.1-.54-.1s-.41.03-.53.1c-.12.07-.22.2-.28.41-.06.21-.09.52-.09.94s.03.74.09.94c.06.21.15.34.28.41.12.06.3.1.53.1s.42-.03.54-.1m-1.87.95c-.33-.16-.56-.42-.71-.78-.15-.36-.23-.87-.23-1.52s.08-1.19.23-1.55c.15-.36.39-.62.71-.76.33-.14.77-.22,1.33-.22s1.01.08,1.34.23c.33.15.56.41.71.77.15.37.23.88.23,1.53s-.07,1.17-.22,1.53c-.15.36-.38.62-.71.77-.32.15-.77.23-1.34.23s-1-.08-1.33-.23"/><path class="cls-1" d="m187.5,74.85v-2.49c-.16-.06-.3-.11-.43-.14-.13-.03-.26-.05-.39-.05-.24,0-.42.04-.56.12-.13.08-.23.23-.29.45-.06.22-.09.53-.09.94s.03.68.09.89c.06.21.15.35.28.43.13.08.3.12.52.12.29,0,.59-.09.87-.28m-2.69.79c-.29-.39-.44-1.02-.44-1.9,0-.63.06-1.13.17-1.5.11-.37.31-.65.58-.83.27-.18.64-.27,1.11-.27.41,0,.83.08,1.26.23v-2.24h1.37v7.03h-1.15l-.22-.47c-.17.15-.38.27-.63.37-.25.1-.49.15-.73.15-.6,0-1.04-.19-1.33-.58"/><path class="cls-1" d="m190.25,75.82c-.25-.26-.37-.63-.37-1.11v-3.5h1.36v3.1c0,.26.06.45.18.55.12.1.3.15.54.15.17,0,.35-.03.53-.1.18-.06.34-.15.48-.26v-3.44h1.37v4.95h-1.13l-.24-.51c-.57.38-1.13.56-1.68.56-.45,0-.8-.13-1.05-.4"/><path class="cls-1" d="m196.33,76c-.23-.11-.4-.29-.51-.55-.1-.26-.15-.6-.14-1.04l.05-2.09h-.77v-.88l.82-.22.19-1.38h1.08v1.38h1.16v1.1h-1.16v2.08c0,.25.04.42.13.52.09.1.21.16.36.18l.63.06v1.01h-.89c-.39,0-.7-.06-.93-.17"/><path class="cls-1" d="m201.62,75.03c.12-.07.22-.2.28-.41.06-.21.09-.52.09-.94s-.03-.74-.09-.94c-.06-.21-.15-.34-.28-.41-.12-.06-.3-.1-.54-.1s-.41.03-.53.1c-.12.07-.22.2-.28.41-.06.21-.09.52-.09.94s.03.74.09.94c.06.21.15.34.28.41.12.06.3.1.53.1s.42-.03.54-.1m-1.87.95c-.33-.16-.56-.42-.71-.78-.15-.36-.23-.87-.23-1.52s.08-1.19.23-1.55c.15-.36.39-.62.71-.76.33-.14.77-.22,1.33-.22s1.01.08,1.34.23c.33.15.56.41.71.77.15.37.23.88.23,1.53s-.07,1.17-.22,1.53c-.15.36-.38.62-.71.77-.32.15-.77.23-1.34.23s-1-.08-1.33-.23"/><path class="cls-1" d="m204.99,76.16c-.37-.04-.66-.09-.85-.16v-.8h2.19c.2,0,.35-.03.43-.08.09-.06.13-.16.13-.32v-.16c0-.13-.04-.23-.12-.29-.08-.07-.23-.1-.44-.1h-.77c-.46,0-.83-.11-1.1-.32-.27-.21-.41-.55-.41-1.03v-.29c0-.49.15-.85.45-1.09.3-.24.81-.35,1.54-.35.3,0,.63.02.99.07.36.05.63.1.81.16v.8h-2.07c-.19,0-.33.03-.41.09-.09.06-.13.17-.13.32v.15c0,.15.05.26.14.31.09.05.25.08.46.08h.79c.49,0,.86.11,1.09.34.24.22.35.55.35.96v.44c0,.48-.17.83-.5,1.03-.33.2-.84.3-1.51.3-.34,0-.69-.02-1.06-.06"/><path class="cls-1" d="m214.26,74.85v-2.49c-.16-.06-.3-.11-.43-.14-.13-.03-.26-.05-.39-.05-.24,0-.43.04-.56.12-.13.08-.23.23-.29.45-.06.22-.09.53-.09.94s.03.68.09.89c.06.21.15.35.28.43.13.08.3.12.52.12.29,0,.59-.09.87-.28m-2.69.79c-.29-.39-.44-1.02-.44-1.9,0-.63.06-1.13.17-1.5.11-.37.31-.65.58-.83.27-.18.64-.27,1.11-.27.41,0,.83.08,1.26.23v-2.24h1.37v7.03h-1.15l-.22-.47c-.17.15-.38.27-.63.37-.25.1-.49.15-.73.15-.6,0-1.04-.19-1.33-.58"/><path class="cls-1" d="m218.97,73.36c.19,0,.33-.04.41-.12s.12-.21.12-.39c0-.27-.06-.46-.18-.57-.12-.11-.33-.16-.63-.16-.22,0-.38.04-.5.11-.12.07-.21.2-.26.37-.06.18-.08.43-.08.76h1.12Zm-1.55,2.63c-.32-.15-.55-.4-.7-.76-.14-.36-.22-.87-.22-1.53s.07-1.2.2-1.56c.13-.36.36-.62.67-.77.31-.15.75-.22,1.31-.22.5,0,.9.05,1.19.15.29.1.5.27.63.52.13.25.2.59.2,1.04,0,.48-.14.82-.41,1.02-.27.2-.67.3-1.19.3h-1.24c.01.26.05.47.12.61.07.15.19.25.36.31.17.06.42.1.76.1h1.45v.8c-.33.07-.62.12-.88.16-.26.04-.57.05-.92.05-.56,0-1-.07-1.32-.22"/><polygon class="cls-1" points="4.74 80.4 4.74 83.24 2.17 83.24 2.17 80.4 .81 80.4 .81 87.22 2.17 87.22 2.17 84.46 4.74 84.46 4.74 87.22 6.12 87.22 6.12 80.4 4.74 80.4"/><path class="cls-1" d="m7.22,82.27h1.36v4.95h-1.36v-4.95Zm.02-.78s-.05-.08-.05-.13v-.9c0-.13.06-.19.19-.19h1.05c.06,0,.1.02.13.06.03.04.05.08.05.14v.9c0,.12-.06.18-.18.18h-1.05c-.06,0-.11-.02-.14-.05"/><path class="cls-1" d="m12.53,84.5c.1-.12.16-.28.16-.51,0-.25-.06-.43-.17-.54-.11-.11-.28-.16-.51-.16h-.52c-.24,0-.42.05-.53.16-.11.1-.17.28-.17.52s.05.42.16.53c.11.11.27.17.49.17h.52c.26,0,.45-.06.55-.18m-1.25,2.84c-.21,0-.38.05-.5.15-.13.1-.19.24-.19.41v.1c0,.18.06.31.18.41.12.09.3.14.53.14h.94c.23,0,.42-.04.55-.13.14-.09.2-.22.2-.4v-.15c0-.17-.06-.29-.18-.39-.12-.09-.3-.14-.54-.14h-1Zm3.03-4.32l-.76.14c.11.12.2.25.27.41.07.15.1.36.1.63,0,.46-.14.83-.43,1.1-.29.27-.74.41-1.35.41h-.87c-.38,0-.56.11-.56.34,0,.1.04.17.12.21.08.04.19.07.31.07h1.36c.59,0,1.03.12,1.34.35.3.24.45.61.45,1.13v.14c0,.5-.16.88-.47,1.16-.31.27-.78.41-1.41.41h-1.48c-.48,0-.87-.1-1.17-.31s-.45-.5-.45-.88v-.15c0-.25.07-.46.2-.64.14-.18.32-.33.54-.43-.33-.2-.5-.47-.5-.82,0-.25.07-.45.22-.62.15-.17.35-.28.6-.35-.28-.15-.48-.34-.6-.59s-.19-.52-.19-.83c0-.55.17-.95.51-1.22.34-.26.85-.4,1.55-.4h2.68v.75Z"/><path class="cls-1" d="m15,82.27h1.36v4.95h-1.36v-4.95Zm.02-.78s-.05-.08-.05-.13v-.9c0-.13.06-.19.19-.19h1.05c.06,0,.1.02.13.06.03.04.05.08.05.14v.9c0,.12-.06.18-.18.18h-1.05c-.06,0-.11-.02-.14-.05"/><path class="cls-1" d="m19.72,84.42c.19,0,.33-.04.41-.12.08-.08.12-.21.12-.39,0-.27-.06-.46-.18-.57-.12-.11-.33-.16-.63-.16-.22,0-.38.04-.5.11-.12.07-.21.2-.26.37-.06.18-.08.43-.08.76h1.12Zm-1.55,2.63c-.32-.15-.55-.4-.7-.76-.14-.36-.22-.87-.22-1.53s.07-1.2.2-1.56c.14-.36.36-.62.67-.77.31-.15.75-.22,1.31-.22.5,0,.9.05,1.19.15.29.1.5.27.63.52.13.25.2.59.2,1.04,0,.48-.14.82-.41,1.02-.27.2-.67.3-1.19.3h-1.24c.01.26.05.47.12.61.07.15.19.25.36.31.17.06.42.1.76.1h1.45v.8c-.33.07-.62.12-.88.16-.26.04-.57.05-.92.05-.56,0-1-.07-1.32-.22"/><path class="cls-1" d="m22.36,82.27h1.12l.24.51c.2-.17.45-.31.73-.42.28-.11.56-.17.83-.17.56,0,.95.16,1.19.48.23.32.35.75.35,1.29v3.26h-1.36v-3.09c0-.23-.06-.41-.19-.53-.13-.12-.3-.18-.52-.18-.34,0-.68.12-1.02.37v3.44h-1.36v-4.95Z"/><path class="cls-1" d="m30.15,84.42c.19,0,.33-.04.41-.12.08-.08.12-.21.12-.39,0-.27-.06-.46-.18-.57-.12-.11-.33-.16-.63-.16-.22,0-.38.04-.5.11-.12.07-.21.2-.26.37-.06.18-.08.43-.08.76h1.12Zm-1.55,2.63c-.32-.15-.55-.4-.7-.76-.14-.36-.22-.87-.22-1.53s.07-1.2.2-1.56c.14-.36.36-.62.67-.77.31-.15.75-.22,1.31-.22.5,0,.9.05,1.19.15.29.1.5.27.63.52.13.25.2.59.2,1.04,0,.48-.14.82-.41,1.02-.27.2-.67.3-1.19.3h-1.24c.01.26.05.47.12.61.07.15.19.25.36.31.17.06.42.1.76.1h1.45v.8c-.33.07-.62.12-.88.16-.26.04-.57.05-.92.05-.56,0-1-.07-1.32-.22"/><path class="cls-1" d="m32.96,88.02c-.08-.01-.14-.03-.16-.03v-.43c.09,0,.15-.01.19-.04.04-.03.06-.08.06-.14v-.24h-.09c-.06,0-.1-.02-.14-.05-.04-.03-.05-.08-.05-.15v-.8c0-.14.06-.21.19-.21h.77c.13,0,.19.07.19.21v1.26c0,.25-.07.42-.2.51-.13.09-.3.14-.49.14-.1,0-.19,0-.27-.02"/><path class="cls-1" d="m37.78,86.84c-.26-.25-.4-.66-.4-1.24v-5.2h1.36v4.98c0,.4.2.6.61.6h2.15v1.23h-2.51c-.55,0-.95-.13-1.22-.38"/><path class="cls-1" d="m42.25,82.27h1.36v4.95h-1.36v-4.95Zm.02-.78s-.05-.08-.05-.13v-.9c0-.13.06-.19.19-.19h1.05c.06,0,.1.02.13.06.03.04.05.08.05.14v.9c0,.12-.06.18-.18.18h-1.05c-.06,0-.11-.02-.14-.05"/><path class="cls-1" d="m44.66,82.27h1.12l.24.51c.25-.19.5-.34.76-.44s.55-.15.89-.15c.3,0,.56.06.76.19.21.13.37.3.48.51.25-.19.53-.36.84-.49.31-.14.6-.21.89-.21.57,0,.97.16,1.21.47.24.31.36.76.36,1.35v3.21h-1.36v-3.09c0-.23-.06-.41-.19-.53-.13-.12-.3-.18-.52-.18-.18,0-.36.04-.55.11-.19.07-.36.17-.51.28.02.16.04.28.04.36v3.06h-1.36v-3.09c0-.23-.06-.41-.19-.53-.13-.12-.3-.18-.52-.18-.34,0-.68.12-1.02.37v3.44h-1.36v-4.95Z"/><path class="cls-1" d="m56.14,85.85c.15-.21.23-.57.23-1.1s-.07-.9-.22-1.12c-.15-.22-.35-.33-.61-.33-.31,0-.62.09-.93.28v2.35c.12.07.26.13.43.17.17.04.34.07.5.07.25,0,.45-.1.6-.31m-2.9-3.58h1.14l.22.47c.46-.36.92-.54,1.37-.54.6,0,1.04.22,1.32.66.29.44.43,1.07.43,1.89s-.13,1.48-.39,1.9c-.26.42-.71.63-1.36.63-.23,0-.47-.03-.71-.08-.24-.06-.46-.13-.66-.24v2.44h-1.36v-7.13Z"/><path class="cls-1" d="m60.94,84.42c.19,0,.33-.04.41-.12.08-.08.12-.21.12-.39,0-.27-.06-.46-.18-.57-.12-.11-.33-.16-.63-.16-.22,0-.38.04-.5.11-.12.07-.21.2-.26.37-.06.18-.08.43-.08.76h1.12Zm-1.55,2.63c-.32-.15-.55-.4-.7-.76-.14-.36-.22-.87-.22-1.53s.07-1.2.2-1.56c.14-.36.36-.62.67-.77.31-.15.75-.22,1.31-.22.5,0,.9.05,1.19.15.29.1.5.27.63.52.13.25.2.59.2,1.04,0,.48-.14.82-.41,1.02-.27.2-.67.3-1.19.3h-1.24c.01.26.05.47.12.61.07.15.19.25.36.31.17.06.42.1.76.1h1.45v.8c-.33.07-.62.12-.88.16-.26.04-.57.05-.92.05-.56,0-1-.07-1.32-.22"/><polygon class="cls-1" points="63.46 86.23 65.8 83.37 63.37 83.37 63.37 82.27 67.38 82.27 67.38 83.26 65.04 86.12 67.38 86.12 67.38 87.22 63.46 87.22 63.46 86.23"/><path class="cls-1" d="m70.51,86.23c.21-.06.34-.11.4-.14v-1.15l-.83.05c-.47.04-.7.24-.7.61v.2c0,.35.2.52.61.52.14,0,.32-.03.52-.1m-2.15.71c-.23-.22-.35-.53-.35-.92v-.44c0-.39.14-.71.41-.94.27-.23.68-.35,1.22-.35h1.26v-.34c0-.17-.03-.3-.08-.39s-.16-.17-.31-.21c-.15-.05-.38-.07-.68-.07h-1.48v-.79c.61-.18,1.27-.28,1.98-.28.65,0,1.14.12,1.46.37.32.25.48.67.48,1.28v3.36h-1.08l-.22-.53c-.07.07-.19.15-.36.24-.17.09-.38.17-.61.24-.24.07-.48.1-.72.1-.38,0-.69-.11-.92-.34"/><path class="cls-1" d="m77.98,84.42c.19,0,.33-.04.41-.12.08-.08.12-.21.12-.39,0-.27-.06-.46-.18-.57-.12-.11-.33-.16-.63-.16-.22,0-.38.04-.5.11-.12.07-.21.2-.26.37-.06.18-.08.43-.08.76h1.12Zm-1.55,2.63c-.32-.15-.55-.4-.7-.76-.14-.36-.22-.87-.22-1.53s.07-1.2.2-1.56c.14-.36.36-.62.67-.77.31-.15.75-.22,1.31-.22.5,0,.9.05,1.19.15.29.1.5.27.63.52.13.25.2.59.2,1.04,0,.48-.14.82-.41,1.02-.27.2-.67.3-1.19.3h-1.24c.01.26.05.47.12.61.07.15.19.25.36.31.17.06.42.1.76.1h1.45v.8c-.33.07-.62.12-.88.16-.26.04-.57.05-.92.05-.56,0-1-.07-1.32-.22"/><path class="cls-1" d="m83.99,87.21c-.4-.04-.74-.1-1.01-.17v-1.08c.55.06,1.24.08,2.07.08.37,0,.66-.05.85-.15.19-.1.28-.28.28-.54v-.25c0-.2-.06-.36-.18-.47-.12-.11-.29-.16-.51-.16h-.58c-.68,0-1.18-.15-1.52-.44s-.5-.78-.5-1.45v-.33c0-1.28.73-1.92,2.2-1.92.34,0,.7.02,1.07.07.37.05.7.1,1,.16v1.08c-.84-.05-1.48-.08-1.91-.08-.35,0-.61.05-.79.16-.18.11-.27.31-.27.59v.18c0,.23.07.4.2.51.13.11.33.16.6.16h.67c.59,0,1.04.16,1.35.48.31.32.47.75.47,1.27v.39c0,.52-.09.92-.29,1.2-.19.28-.46.48-.8.59-.34.11-.77.16-1.28.16-.35,0-.72-.02-1.12-.07"/><path class="cls-1" d="m90.7,86.23c.21-.06.34-.11.4-.14v-1.15l-.83.05c-.47.04-.7.24-.7.61v.2c0,.35.2.52.61.52.14,0,.32-.03.52-.1m-2.15.71c-.23-.22-.35-.53-.35-.92v-.44c0-.39.14-.71.41-.94.27-.23.68-.35,1.22-.35h1.26v-.34c0-.17-.03-.3-.08-.39-.05-.09-.16-.17-.31-.21-.15-.05-.38-.07-.68-.07h-1.48v-.79c.61-.18,1.27-.28,1.98-.28.65,0,1.14.12,1.46.37.32.25.48.67.48,1.28v3.36h-1.08l-.22-.53c-.07.07-.19.15-.36.24-.17.09-.38.17-.61.24-.24.07-.48.1-.72.1-.38,0-.69-.11-.92-.34"/><path class="cls-1" d="m93.49,82.27h1.12l.24.51c.2-.17.45-.31.73-.42.28-.11.56-.17.83-.17.56,0,.95.16,1.19.48.23.32.35.75.35,1.29v3.26h-1.36v-3.09c0-.23-.06-.41-.19-.53-.13-.12-.3-.18-.52-.18-.34,0-.68.12-1.02.37v3.44h-1.36v-4.95Z"/><path class="cls-1" d="m101.28,84.42c.19,0,.33-.04.41-.12.08-.08.12-.21.12-.39,0-.27-.06-.46-.18-.57-.12-.11-.33-.16-.63-.16-.22,0-.38.04-.5.11-.12.07-.21.2-.26.37-.06.18-.08.43-.08.76h1.12Zm-1.55,2.63c-.32-.15-.55-.4-.7-.76-.14-.36-.22-.87-.22-1.53s.07-1.2.2-1.56c.14-.36.36-.62.67-.77.31-.15.75-.22,1.31-.22.5,0,.9.05,1.19.15.29.1.5.27.63.52.13.25.2.59.2,1.04,0,.48-.14.82-.41,1.02-.27.2-.67.3-1.19.3h-1.24c.01.26.05.47.12.61.07.15.19.25.36.31.17.06.42.1.76.1h1.45v.8c-.33.07-.62.12-.88.16-.26.04-.57.05-.92.05-.56,0-1-.07-1.32-.22"/><path class="cls-1" d="m106.2,86.23c.21-.06.34-.11.4-.14v-1.15l-.83.05c-.47.04-.7.24-.7.61v.2c0,.35.2.52.61.52.14,0,.32-.03.53-.1m-2.15.71c-.23-.22-.35-.53-.35-.92v-.44c0-.39.14-.71.41-.94.27-.23.68-.35,1.22-.35h1.26v-.34c0-.17-.03-.3-.08-.39-.05-.09-.16-.17-.31-.21-.15-.05-.38-.07-.68-.07h-1.48v-.79c.61-.18,1.27-.28,1.98-.28.65,0,1.14.12,1.46.37.32.25.48.67.48,1.28v3.36h-1.08l-.22-.53c-.07.07-.19.15-.36.24-.17.09-.38.17-.61.24-.24.07-.48.1-.72.1-.38,0-.69-.11-.92-.34"/><path class="cls-1" d="m108.98,82.27h1.12l.24.51c.2-.17.45-.31.73-.42.28-.11.56-.17.83-.17.56,0,.95.16,1.19.48.23.32.35.75.35,1.29v3.26h-1.36v-3.09c0-.23-.06-.41-.19-.53-.13-.12-.3-.18-.52-.18-.34,0-.68.12-1.02.37v3.44h-1.36v-4.95Z"/><path class="cls-1" d="m115.41,87.05c-.23-.11-.4-.29-.51-.55s-.15-.6-.14-1.04l.05-2.09h-.77v-.88l.82-.22.18-1.38h1.08v1.38h1.16v1.1h-1.16v2.08c0,.25.04.42.13.52.09.1.21.16.36.18l.63.06v1.01h-.89c-.39,0-.7-.06-.93-.17"/><path class="cls-1" d="m120.36,84.42c.19,0,.33-.04.41-.12.08-.08.12-.21.12-.39,0-.27-.06-.46-.18-.57-.12-.11-.33-.16-.63-.16-.22,0-.38.04-.5.11-.12.07-.21.2-.26.37-.06.18-.08.43-.08.76h1.12Zm-1.55,2.63c-.32-.15-.55-.4-.7-.76-.14-.36-.22-.87-.22-1.53s.07-1.2.2-1.56c.14-.36.36-.62.67-.77.31-.15.75-.22,1.31-.22.5,0,.9.05,1.19.15.29.1.5.27.63.52.13.25.2.59.2,1.04,0,.48-.14.82-.41,1.02-.27.2-.67.3-1.19.3h-1.24c.01.26.05.47.12.61.07.15.19.25.36.31.17.06.42.1.76.1h1.45v.8c-.33.07-.62.12-.88.16-.26.04-.57.05-.92.05-.56,0-1-.07-1.32-.22"/><path class="cls-1" d="m123.73,87.21c-.37-.04-.66-.09-.85-.16v-.8h2.19c.2,0,.35-.03.43-.08.09-.06.13-.16.13-.32v-.16c0-.13-.04-.23-.12-.29-.08-.07-.23-.1-.44-.1h-.77c-.46,0-.83-.11-1.1-.32-.27-.21-.41-.55-.41-1.03v-.29c0-.49.15-.85.45-1.09.3-.24.81-.35,1.54-.35.3,0,.63.02.99.07.36.05.63.1.81.16v.8h-2.07c-.19,0-.33.03-.41.09-.09.06-.13.17-.13.32v.15c0,.15.05.26.14.31.09.05.25.08.46.08h.79c.49,0,.86.11,1.09.34.24.22.36.55.36.96v.44c0,.48-.17.83-.5,1.03-.33.2-.84.3-1.51.3-.34,0-.69-.02-1.06-.06"/><path class="cls-1" d="m133,85.9v-2.49c-.16-.06-.3-.11-.43-.14-.13-.03-.26-.05-.39-.05-.24,0-.43.04-.56.12-.13.08-.23.23-.29.45-.06.22-.09.53-.09.94s.03.68.09.89c.06.21.15.35.28.43.13.08.3.12.52.12.29,0,.59-.09.87-.28m-2.69.79c-.29-.39-.44-1.02-.44-1.9,0-.63.06-1.13.17-1.5.11-.37.31-.65.58-.83.27-.18.64-.27,1.11-.27.41,0,.83.08,1.26.23v-2.24h1.37v7.03h-1.15l-.22-.47c-.17.15-.38.27-.63.37-.25.1-.49.15-.73.15-.6,0-1.04-.19-1.33-.58"/><path class="cls-1" d="m137.71,84.42c.19,0,.33-.04.41-.12.08-.08.12-.21.12-.39,0-.27-.06-.46-.18-.57-.12-.11-.33-.16-.63-.16-.22,0-.38.04-.5.11-.12.07-.21.2-.26.37-.06.18-.08.43-.08.76h1.12Zm-1.55,2.63c-.32-.15-.55-.4-.7-.76-.14-.36-.22-.87-.22-1.53s.07-1.2.2-1.56c.14-.36.36-.62.67-.77.31-.15.75-.22,1.31-.22.5,0,.9.05,1.19.15.29.1.5.27.63.52.13.25.2.59.2,1.04,0,.48-.14.82-.41,1.02-.27.2-.67.3-1.19.3h-1.24c.01.26.05.47.12.61.07.15.19.25.36.31.17.06.42.1.76.1h1.45v.8c-.33.07-.62.12-.88.16-.26.04-.57.05-.92.05-.56,0-1-.07-1.32-.22"/><path class="cls-1" d="m143.38,86.78c-.46-.32-.69-.91-.69-1.75v-4.62h1.36v4.61c0,.36.11.62.33.78.22.16.54.24.97.24s.75-.08.97-.24c.22-.16.32-.42.32-.78v-4.61h1.37v4.62c0,.85-.23,1.43-.7,1.75-.46.32-1.12.48-1.97.48s-1.51-.16-1.97-.48"/><path class="cls-1" d="m149.77,87.21c-.37-.04-.66-.09-.85-.16v-.8h2.19c.2,0,.35-.03.43-.08.09-.06.13-.16.13-.32v-.16c0-.13-.04-.23-.12-.29-.08-.07-.23-.1-.44-.1h-.77c-.46,0-.83-.11-1.1-.32-.27-.21-.41-.55-.41-1.03v-.29c0-.49.15-.85.45-1.09.3-.24.81-.35,1.54-.35.3,0,.63.02.99.07s.63.1.81.16v.8h-2.07c-.19,0-.33.03-.41.09-.09.06-.13.17-.13.32v.15c0,.15.05.26.14.31.09.05.25.08.46.08h.79c.49,0,.86.11,1.09.34.24.22.35.55.35.96v.44c0,.48-.17.83-.5,1.03-.33.2-.84.3-1.51.3-.34,0-.69-.02-1.06-.06"/><path class="cls-1" d="m156.35,86.08c.12-.07.22-.2.28-.41.06-.21.09-.52.09-.94s-.03-.74-.09-.94c-.06-.21-.15-.34-.28-.41-.12-.06-.3-.1-.54-.1s-.41.03-.53.1c-.12.07-.22.2-.28.41-.06.21-.09.52-.09.94s.03.74.09.94c.06.21.15.34.28.41.12.06.3.1.53.1s.42-.03.54-.1m-1.87.95c-.33-.16-.56-.42-.71-.78-.15-.36-.23-.87-.23-1.52s.08-1.19.23-1.55c.15-.36.39-.62.71-.76.33-.14.77-.22,1.33-.22s1.01.08,1.34.23c.33.15.56.41.71.77.15.37.23.88.23,1.53s-.07,1.17-.22,1.53c-.15.36-.38.62-.71.77-.32.15-.77.23-1.34.23s-1-.08-1.33-.23"/><path class="cls-1" d="m164.17,85.99c.41,0,.71-.18.88-.54.18-.36.27-.91.27-1.64,0-.58-.04-1.02-.12-1.34-.08-.32-.21-.54-.37-.66-.17-.12-.38-.18-.65-.18h-1.38v4.37h1.38Zm-2.75-5.59h2.88c.87,0,1.49.29,1.84.88.36.59.53,1.43.53,2.52,0,1.15-.2,2-.59,2.57-.39.56-.99.84-1.79.84h-2.88v-6.82Z"/><path class="cls-1" d="m170.2,86.08c.12-.07.22-.2.28-.41.06-.21.09-.52.09-.94s-.03-.74-.09-.94c-.06-.21-.15-.34-.28-.41-.12-.06-.3-.1-.54-.1s-.41.03-.53.1c-.12.07-.22.2-.28.41-.06.21-.09.52-.09.94s.03.74.09.94c.06.21.15.34.28.41.12.06.3.1.53.1s.42-.03.54-.1m-1.87.95c-.33-.16-.56-.42-.71-.78s-.23-.87-.23-1.52.08-1.19.23-1.55c.15-.36.39-.62.71-.76.33-.14.77-.22,1.33-.22s1.01.08,1.34.23c.33.15.56.41.71.77.15.37.23.88.23,1.53s-.07,1.17-.22,1.53c-.15.36-.38.62-.71.77-.33.15-.77.23-1.34.23s-1-.08-1.33-.23"/><path class="cls-1" d="m172.83,82.27h1.12l.24.51c.25-.19.5-.34.76-.44.25-.1.55-.15.89-.15.3,0,.55.06.76.19.21.13.37.3.48.51.25-.19.53-.36.84-.49.31-.14.61-.21.89-.21.57,0,.97.16,1.21.47.24.31.36.76.36,1.35v3.21h-1.36v-3.09c0-.23-.06-.41-.19-.53-.13-.12-.3-.18-.52-.18-.18,0-.36.04-.55.11-.19.07-.36.17-.51.28.02.16.04.28.04.36v3.06h-1.36v-3.09c0-.23-.06-.41-.19-.53-.13-.12-.3-.18-.52-.18-.34,0-.68.12-1.02.37v3.44h-1.36v-4.95Z"/><path class="cls-1" d="m183.74,80.12h1.1l-1.06,1.29h-.8l.76-1.29Zm-.02,4.3c.19,0,.33-.04.41-.12s.12-.21.12-.39c0-.27-.06-.46-.18-.57-.12-.11-.33-.16-.63-.16-.22,0-.38.04-.5.11-.12.07-.21.2-.26.37-.06.18-.08.43-.08.76h1.12Zm-1.55,2.63c-.32-.15-.55-.4-.7-.76-.14-.36-.22-.87-.22-1.53s.07-1.2.2-1.56c.13-.36.36-.62.67-.77.31-.15.75-.22,1.31-.22.5,0,.9.05,1.19.15.29.1.5.27.63.52.13.25.2.59.2,1.04,0,.48-.14.82-.41,1.02-.27.2-.67.3-1.19.3h-1.24c.01.26.05.47.12.61.07.15.19.25.36.31.17.06.42.1.76.1h1.45v.8c-.33.07-.62.12-.88.16-.26.04-.57.05-.92.05-.56,0-1-.07-1.32-.22"/><path class="cls-1" d="m187.09,87.21c-.37-.04-.66-.09-.85-.16v-.8h2.19c.2,0,.35-.03.43-.08.09-.06.13-.16.13-.32v-.16c0-.13-.04-.23-.12-.29-.08-.07-.23-.1-.44-.1h-.77c-.46,0-.83-.11-1.1-.32-.27-.21-.41-.55-.41-1.03v-.29c0-.49.15-.85.45-1.09.3-.24.81-.35,1.54-.35.3,0,.63.02.99.07.36.05.63.1.81.16v.8h-2.07c-.19,0-.33.03-.41.09-.09.06-.13.17-.13.32v.15c0,.15.05.26.14.31.09.05.25.08.46.08h.79c.49,0,.86.11,1.09.34.24.22.36.55.36.96v.44c0,.48-.17.83-.5,1.03-.33.2-.84.3-1.51.3-.34,0-.69-.02-1.06-.06"/><path class="cls-1" d="m191.96,87.05c-.23-.11-.4-.29-.51-.55s-.15-.6-.14-1.04l.05-2.09h-.77v-.88l.82-.22.19-1.38h1.08v1.38h1.16v1.1h-1.16v2.08c0,.25.04.42.13.52.09.1.21.16.36.18l.63.06v1.01h-.89c-.39,0-.7-.06-.93-.17"/><path class="cls-1" d="m194.59,82.27h1.36v4.95h-1.36v-4.95Zm.02-.78s-.05-.08-.05-.13v-.9c0-.13.06-.19.19-.19h1.05c.06,0,.1.02.13.06.03.04.05.08.05.14v.9c0,.12-.06.18-.18.18h-1.05c-.06,0-.11-.02-.14-.05"/><path class="cls-1" d="m197.4,86.71c-.36-.37-.54-1.02-.54-1.94,0-.66.08-1.17.24-1.55.16-.37.39-.64.7-.79.31-.15.7-.23,1.17-.23.6,0,1.17.08,1.72.23v.78h-1.3c-.29,0-.52.04-.69.13-.17.09-.29.24-.36.46-.08.22-.12.54-.12.96s.04.72.12.94c.08.21.2.36.36.43.17.08.4.12.71.12h1.35v.77c-.23.07-.52.14-.86.18-.34.05-.66.07-.98.07-.66,0-1.17-.19-1.53-.56"/><path class="cls-1" d="m204.18,86.08c.12-.07.22-.2.28-.41.06-.21.09-.52.09-.94s-.03-.74-.09-.94c-.06-.21-.15-.34-.28-.41-.12-.06-.3-.1-.54-.1s-.41.03-.53.1c-.12.07-.22.2-.28.41-.06.21-.09.52-.09.94s.03.74.09.94c.06.21.15.34.28.41.12.06.3.1.53.1s.42-.03.54-.1m-1.87.95c-.33-.16-.56-.42-.71-.78-.15-.36-.23-.87-.23-1.52s.08-1.19.23-1.55c.15-.36.39-.62.71-.76.33-.14.77-.22,1.33-.22s1.01.08,1.34.23c.33.15.56.41.71.77.15.37.23.88.23,1.53s-.07,1.17-.22,1.53c-.15.36-.38.62-.71.77-.33.15-.77.23-1.34.23s-1-.08-1.33-.23"/><path class="cls-1" d="m211.51,84.42c.19,0,.33-.04.41-.12s.12-.21.12-.39c0-.27-.06-.46-.18-.57-.12-.11-.33-.16-.63-.16-.22,0-.38.04-.5.11-.12.07-.21.2-.26.37-.06.18-.08.43-.08.76h1.12Zm-1.55,2.63c-.32-.15-.55-.4-.7-.76-.14-.36-.22-.87-.22-1.53s.07-1.2.2-1.56c.13-.36.36-.62.67-.77.31-.15.75-.22,1.31-.22.5,0,.9.05,1.19.15.29.1.5.27.63.52.13.25.2.59.2,1.04,0,.48-.14.82-.41,1.02-.27.2-.67.3-1.19.3h-1.24c.01.26.05.47.12.61.07.15.19.25.36.31.17.06.42.1.76.1h1.45v.8c-.33.07-.62.12-.88.16-.26.04-.57.05-.92.05-.56,0-1-.07-1.32-.22"/><path class="cls-1" d="m3.72,96.96v-2.49c-.16-.06-.3-.11-.43-.14-.13-.03-.26-.05-.39-.05-.24,0-.43.04-.56.12-.13.08-.23.23-.29.45-.06.22-.09.53-.09.94s.03.68.09.89c.06.21.15.35.28.43s.3.12.52.12c.29,0,.59-.09.88-.28m-2.69.79c-.29-.39-.44-1.02-.44-1.9,0-.63.06-1.13.17-1.5.11-.37.31-.65.57-.83.27-.18.64-.27,1.11-.27.41,0,.83.08,1.26.23v-2.24h1.37v7.03h-1.15l-.22-.47c-.17.15-.38.27-.63.37-.25.1-.49.15-.73.15-.6,0-1.04-.19-1.33-.58"/><path class="cls-1" d="m8.43,95.47c.19,0,.33-.04.41-.12.08-.08.12-.21.12-.39,0-.27-.06-.46-.18-.57-.12-.11-.33-.16-.63-.16-.22,0-.38.04-.5.11-.12.07-.21.2-.26.37s-.08.43-.08.76h1.12Zm-1.55,2.63c-.32-.15-.55-.4-.7-.76-.14-.36-.22-.87-.22-1.53s.07-1.2.2-1.56c.14-.36.36-.62.67-.77.31-.15.75-.22,1.31-.22.5,0,.9.05,1.19.15.29.1.5.27.63.52.13.25.2.59.2,1.04,0,.48-.14.82-.41,1.02-.27.2-.67.3-1.19.3h-1.24c.01.26.05.47.12.61.07.15.19.25.36.31.17.06.42.1.76.1h1.45v.8c-.33.07-.62.12-.88.16-.26.04-.57.05-.92.05-.56,0-1-.07-1.32-.22"/><path class="cls-1" d="m14.1,97.84c-.46-.32-.69-.91-.69-1.75v-4.62h1.36v4.61c0,.36.11.62.33.78.22.16.54.24.97.24s.75-.08.97-.24c.21-.16.32-.42.32-.78v-4.61h1.37v4.62c0,.85-.23,1.43-.7,1.75-.46.32-1.12.48-1.97.48s-1.51-.16-1.97-.48"/><path class="cls-1" d="m20.49,98.27c-.37-.04-.66-.09-.85-.16v-.8h2.19c.2,0,.35-.03.43-.08.09-.06.13-.16.13-.32v-.16c0-.13-.04-.23-.12-.29-.08-.07-.23-.1-.44-.1h-.77c-.46,0-.83-.11-1.1-.32-.27-.21-.41-.55-.41-1.03v-.29c0-.49.15-.85.45-1.09.3-.24.81-.35,1.54-.35.3,0,.63.02.99.07.36.05.63.1.81.16v.8h-2.07c-.19,0-.33.03-.41.09-.09.06-.13.17-.13.32v.15c0,.15.05.26.14.31.09.05.25.08.46.08h.79c.49,0,.86.11,1.09.34.24.22.35.55.35.96v.44c0,.48-.17.83-.5,1.03-.33.2-.84.3-1.51.3-.34,0-.69-.02-1.06-.06"/><path class="cls-1" d="m27.08,97.14c.12-.07.22-.2.28-.41.06-.21.09-.52.09-.94s-.03-.74-.09-.94c-.06-.21-.15-.34-.28-.41-.12-.06-.3-.1-.54-.1s-.41.03-.53.1c-.12.07-.22.2-.28.41-.06.21-.09.52-.09.94s.03.74.09.94c.06.21.15.34.28.41.12.06.3.1.53.1s.42-.03.54-.1m-1.87.95c-.33-.16-.56-.42-.71-.78-.15-.36-.23-.87-.23-1.52s.07-1.19.23-1.55c.15-.36.39-.62.71-.76.33-.14.77-.22,1.33-.22s1.01.08,1.34.23c.33.15.56.41.71.77.15.37.23.88.23,1.53s-.07,1.17-.22,1.53c-.15.36-.38.62-.71.77-.33.15-.77.23-1.35.23s-1-.08-1.33-.23"/><path class="cls-1" d="m34.87,94.97c.25,0,.43-.09.56-.28s.19-.48.19-.88c0-.75-.24-1.12-.72-1.12h-1.38v2.29h1.35Zm-2.72-3.51h2.87c.57,0,1.04.16,1.41.48.37.32.55.94.55,1.86,0,1.6-.64,2.39-1.91,2.39-.2,0-.45-.02-.76-.05-.31-.03-.58-.07-.8-.1v2.23h-1.36v-6.82Z"/><path class="cls-1" d="m37.81,93.33h1.05l.31.76c.2-.26.41-.46.63-.6.22-.14.48-.22.77-.22.16,0,.29.02.41.05v1.4c-.32-.03-.51-.05-.58-.05-.26,0-.49.04-.68.13-.19.09-.37.22-.54.41v3.08h-1.36v-4.95Z"/><path class="cls-1" d="m44.37,97.14c.12-.07.22-.2.28-.41.06-.21.09-.52.09-.94s-.03-.74-.09-.94c-.06-.21-.15-.34-.28-.41-.12-.06-.3-.1-.54-.1s-.41.03-.53.1c-.12.07-.22.2-.28.41-.06.21-.09.52-.09.94s.03.74.09.94c.06.21.15.34.28.41.12.06.3.1.53.1s.42-.03.54-.1m-1.87.95c-.33-.16-.56-.42-.71-.78s-.23-.87-.23-1.52.08-1.19.23-1.55c.15-.36.39-.62.71-.76.33-.14.77-.22,1.33-.22s1.01.08,1.34.23c.33.15.56.41.71.77.15.37.23.88.23,1.53s-.07,1.17-.22,1.53c-.15.36-.38.62-.71.77-.33.15-.77.23-1.35.23s-1-.08-1.33-.23"/><path class="cls-1" d="m51.99,91.37s.05.08.05.14v.9c0,.12-.06.18-.17.18h-1.05c-.06,0-.11-.02-.14-.05-.03-.03-.05-.08-.05-.13v-.9c0-.13.06-.19.19-.19h1.05c.06,0,.1.02.13.06m.02,6.9h-1.36v-3.85h-2v3.85h-1.36v-3.85h-.7v-.87l.7-.22v-.53c0-.59.12-1,.36-1.24.24-.24.62-.36,1.15-.36.25,0,.48.01.7.04s.4.07.54.12v.99c-.2-.02-.45-.03-.76-.03-.23,0-.39.05-.48.16-.09.11-.14.28-.14.52v.34h3.36v4.95Z"/><path class="cls-1" d="m53.79,98.27c-.37-.04-.66-.09-.85-.16v-.8h2.19c.2,0,.35-.03.43-.08.09-.06.13-.16.13-.32v-.16c0-.13-.04-.23-.12-.29-.08-.07-.23-.1-.44-.1h-.77c-.46,0-.83-.11-1.1-.32-.27-.21-.41-.55-.41-1.03v-.29c0-.49.15-.85.45-1.09.3-.24.81-.35,1.54-.35.3,0,.63.02.99.07.36.05.63.1.81.16v.8h-2.07c-.19,0-.33.03-.41.09-.09.06-.13.17-.13.32v.15c0,.15.05.26.14.31.09.05.25.08.46.08h.79c.49,0,.86.11,1.09.34.24.22.36.55.36.96v.44c0,.48-.17.83-.5,1.03-.33.2-.84.3-1.51.3-.34,0-.69-.02-1.06-.06"/><path class="cls-1" d="m58.44,98.27c-.37-.04-.66-.09-.85-.16v-.8h2.19c.2,0,.35-.03.43-.08.09-.06.13-.16.13-.32v-.16c0-.13-.04-.23-.12-.29-.08-.07-.23-.1-.44-.1h-.77c-.46,0-.83-.11-1.1-.32-.27-.21-.41-.55-.41-1.03v-.29c0-.49.15-.85.45-1.09.3-.24.81-.35,1.54-.35.3,0,.63.02.99.07.36.05.63.1.81.16v.8h-2.07c-.19,0-.33.03-.41.09-.09.06-.13.17-.13.32v.15c0,.15.05.26.14.31.09.05.25.08.46.08h.79c.49,0,.86.11,1.09.34.24.22.35.55.35.96v.44c0,.48-.17.83-.5,1.03-.33.2-.84.3-1.51.3-.34,0-.69-.02-1.06-.06"/><path class="cls-1" d="m62.36,93.33h1.36v4.95h-1.36v-4.95Zm.02-.78s-.05-.08-.05-.13v-.9c0-.13.06-.19.19-.19h1.05c.06,0,.1.02.13.06.03.04.05.08.05.14v.9c0,.12-.06.18-.18.18h-1.05c-.06,0-.11-.02-.14-.05"/><path class="cls-1" d="m67.44,97.14c.12-.07.22-.2.28-.41.06-.21.09-.52.09-.94s-.03-.74-.09-.94c-.06-.21-.15-.34-.28-.41-.12-.06-.3-.1-.54-.1s-.41.03-.53.1c-.12.07-.22.2-.28.41-.06.21-.09.52-.09.94s.03.74.09.94c.06.21.15.34.28.41.12.06.3.1.53.1s.42-.03.54-.1m-1.87.95c-.33-.16-.56-.42-.71-.78s-.23-.87-.23-1.52.08-1.19.23-1.55c.15-.36.39-.62.71-.76.33-.14.77-.22,1.33-.22s1.01.08,1.34.23c.33.15.56.41.71.77.15.37.23.88.23,1.53s-.07,1.17-.22,1.53c-.15.36-.38.62-.71.77-.33.15-.77.23-1.35.23s-1-.08-1.33-.23"/><path class="cls-1" d="m70.07,93.33h1.12l.24.51c.2-.17.45-.31.73-.42.28-.11.56-.17.83-.17.56,0,.95.16,1.19.48.23.32.35.75.35,1.29v3.26h-1.36v-3.09c0-.23-.06-.41-.19-.53-.13-.12-.3-.18-.52-.18-.34,0-.68.12-1.02.37v3.44h-1.36v-4.95Z"/><path class="cls-1" d="m77.84,97.28c.21-.06.34-.11.4-.14v-1.15l-.83.05c-.47.04-.7.24-.7.61v.2c0,.35.2.52.61.52.14,0,.32-.03.52-.1m-2.15.71c-.23-.22-.35-.53-.35-.92v-.44c0-.39.14-.71.41-.94.27-.23.68-.35,1.22-.35h1.26v-.34c0-.17-.03-.3-.08-.39-.06-.09-.16-.17-.31-.21-.15-.05-.38-.07-.68-.07h-1.48v-.79c.61-.18,1.27-.28,1.98-.28.65,0,1.14.12,1.46.37.32.25.48.67.48,1.28v3.36h-1.08l-.22-.53c-.07.07-.19.15-.36.24-.17.09-.38.17-.61.24-.24.07-.48.1-.72.1-.38,0-.69-.11-.92-.34"/><path class="cls-1" d="m81,97.9c-.26-.26-.38-.67-.38-1.22v-5.44h1.36v5.23c0,.26.04.45.12.57.08.11.21.18.4.21l.38.06v.99h-.71c-.52,0-.91-.13-1.17-.39"/></g></svg>