<?xml version="1.0" encoding="UTF-8"?><svg id="Layer_2" xmlns="http://www.w3.org/2000/svg" viewBox="0 0 214.18 92.57"><defs><style>.cls-1{fill:#fff;stroke-width:0px;}</style></defs><g id="Layer_1-2"><path class="cls-1" d="m51.57,59.8c.27.45.47.94.5,1.48h27.54v-1.48h-28.05Z"/><path class="cls-1" d="m41.25,59.8H11.19v1.48h29.59c-.01-.55.18-1.04.47-1.48"/><path class="cls-1" d="m38.73,62.77H11.19v1.49h26.97c.04-.56.25-1.06.57-1.49"/><path class="cls-1" d="m52.17,62.77c-.11.19-.29.31-.43.47.02.13.08.26.09.39,0,.22-.07.41-.11.62h27.91v-1.49h-27.44Z"/><path class="cls-1" d="m37.11,65.74H11.19v1.48h25.48c-.02-.55.17-1.04.43-1.48"/><path class="cls-1" d="m51.7,65.74c-.29.3-.64.52-1.02.68,0,.28-.06.55-.15.81h29.09v-1.48h-27.92Z"/><path class="cls-1" d="m0,84.64h1.06v7.83H0v-7.83Zm.72,6.86h4.19v.97H.72v-.97Z"/><path class="cls-1" d="m6.9,84.64h1.06v7.83h-1.06v-7.83Zm.72,0h4.43v.97h-4.43v-.97Zm0,3.36h4.12v.93h-4.12v-.93Zm0,3.5h4.49v.97h-4.49v-.97Z"/><rect class="cls-1" x="14.23" y="84.64" width="1.06" height="7.83"/><path class="cls-1" d="m20.84,92.46v-7.83h.74l.32,1.23v6.6h-1.06Zm5.41,0l-4.8-6.42.14-1.41,4.82,6.4-.15,1.42Zm0,0l-.32-1.16v-6.66h1.06v7.83h-.74Z"/><path class="cls-1" d="m30.54,87.96c-.32,0-.62-.08-.89-.22-.27-.15-.48-.36-.63-.61-.15-.26-.22-.55-.22-.86s.08-.61.23-.86c.15-.25.36-.45.62-.6.26-.15.55-.23.89-.23s.63.07.88.22c.26.15.47.35.62.6.15.26.23.54.23.87s-.08.6-.23.86c-.15.26-.36.46-.62.61-.26.15-.56.22-.89.22m0-.76c.27,0,.49-.09.66-.26.17-.18.25-.4.25-.68s-.09-.5-.26-.68-.39-.26-.65-.26-.49.09-.66.26c-.17.18-.25.4-.25.67s.09.51.26.68c.17.18.39.26.65.26"/><path class="cls-1" d="m36.55,91.82l2.89-3.04c.29-.3.52-.56.69-.78.17-.22.28-.43.35-.62.07-.19.11-.38.11-.59,0-.4-.13-.71-.38-.94-.26-.23-.59-.34-.99-.34s-.75.1-1.05.29c-.3.19-.57.49-.8.89l-.74-.62c.31-.51.68-.9,1.12-1.16.44-.26.94-.39,1.51-.39.48,0,.9.09,1.26.28.36.19.63.45.83.79.2.34.29.73.29,1.18,0,.32-.04.61-.12.87-.08.25-.22.52-.42.78-.2.27-.48.58-.83.95l-2.33,2.4-1.38.03Zm0,.64v-.64l.9-.3h4.35v.95h-5.25Z"/><path class="cls-1" d="m44.59,92.57c-.21,0-.39-.07-.52-.22-.14-.15-.21-.32-.21-.52s.07-.39.21-.53.31-.21.52-.21.38.07.52.21c.14.14.21.31.21.53s-.07.38-.21.52c-.14.15-.31.22-.52.22"/><path class="cls-1" d="m50,92.57c-.52,0-.98-.1-1.37-.29-.4-.19-.7-.47-.92-.81-.22-.35-.33-.74-.33-1.17,0-.35.07-.68.2-.97.13-.29.33-.54.6-.75.26-.21.57-.36.92-.44l.03.3c-.3-.08-.56-.22-.77-.4-.21-.18-.37-.4-.48-.65-.11-.25-.16-.52-.16-.81,0-.41.1-.76.29-1.07.2-.31.47-.55.81-.73.34-.18.73-.26,1.17-.26s.83.09,1.17.26c.34.18.61.42.8.73.19.31.29.67.29,1.07,0,.29-.06.56-.16.81-.11.25-.27.47-.47.65-.21.18-.46.32-.76.4l.02-.3c.36.09.67.24.93.44.26.21.46.46.6.75s.21.62.21.97c0,.44-.11.83-.33,1.17-.22.35-.52.62-.92.81-.39.2-.86.29-1.38.29m0-.96c.32,0,.59-.06.83-.19s.42-.29.56-.51c.14-.22.21-.47.21-.75s-.07-.53-.21-.75c-.14-.22-.33-.39-.56-.51s-.51-.19-.83-.19-.58.06-.82.19c-.24.12-.43.29-.57.51-.14.22-.21.47-.21.75s.07.54.21.75c.14.22.33.39.57.51.24.12.51.19.82.19m0-3.72c.38,0,.68-.12.92-.35.24-.23.36-.53.36-.9s-.12-.66-.36-.88c-.24-.23-.55-.34-.92-.34s-.67.11-.91.34c-.24.23-.36.52-.36.88s.12.67.36.9c.24.23.55.35.91.35"/><path class="cls-1" d="m57.5,92.57c-.59,0-1.12-.17-1.61-.5-.48-.33-.87-.8-1.16-1.4-.29-.61-.43-1.32-.43-2.14s.14-1.53.42-2.13c.28-.6.66-1.07,1.14-1.39.48-.33,1.01-.49,1.59-.49s1.13.16,1.61.49c.48.33.86.79,1.14,1.39.28.6.42,1.32.42,2.14s-.14,1.53-.42,2.14c-.28.6-.66,1.07-1.14,1.4-.48.33-1,.49-1.58.49m-.02-1c.41,0,.78-.11,1.09-.34.31-.23.56-.57.74-1.02.18-.45.27-1.01.27-1.67s-.09-1.22-.27-1.66c-.18-.45-.43-.78-.74-1.01-.32-.23-.68-.35-1.09-.35s-.77.12-1.08.35c-.32.23-.56.57-.74,1.01-.18.45-.27,1-.27,1.66s.09,1.22.27,1.67c.18.45.42.79.74,1.02.32.23.68.34,1.09.34"/><path class="cls-1" d="m65.57,92.57c-.59,0-1.12-.17-1.61-.5-.48-.33-.87-.8-1.16-1.4-.29-.61-.43-1.32-.43-2.14s.14-1.53.42-2.13c.28-.6.66-1.07,1.14-1.39.48-.33,1.01-.49,1.59-.49s1.13.16,1.61.49c.48.33.86.79,1.14,1.39.28.6.42,1.32.42,2.14s-.14,1.53-.42,2.14c-.28.6-.66,1.07-1.14,1.4-.48.33-1,.49-1.58.49m-.02-1c.41,0,.78-.11,1.09-.34.31-.23.56-.57.74-1.02.18-.45.27-1.01.27-1.67s-.09-1.22-.27-1.66c-.18-.45-.43-.78-.74-1.01-.32-.23-.68-.35-1.09-.35s-.77.12-1.08.35c-.32.23-.56.57-.74,1.01-.18.45-.27,1-.27,1.66s.09,1.22.27,1.67c.18.45.42.79.74,1.02.32.23.68.34,1.09.34"/><path class="cls-1" d="m73.87,84.64h1.06v7.83h-1.06v-7.83Zm.7,7.83v-.97h2.18c.58,0,1.09-.13,1.52-.38.44-.25.78-.6,1.02-1.04.24-.44.37-.95.37-1.53s-.12-1.08-.37-1.52c-.25-.44-.59-.79-1.03-1.04-.44-.25-.94-.37-1.51-.37h-2.17v-.97h2.19c.57,0,1.1.1,1.58.29s.91.47,1.26.82c.36.35.64.77.83,1.24.2.47.3.99.3,1.56s-.1,1.07-.3,1.55c-.2.48-.48.89-.83,1.25-.35.35-.77.63-1.26.82-.48.19-1.01.29-1.57.29h-2.22Z"/><path class="cls-1" d="m82.89,84.64h1.06v7.83h-1.06v-7.83Zm.72,0h4.43v.97h-4.43v-.97Zm0,3.36h4.12v.93h-4.12v-.93Zm0,3.5h4.49v.97h-4.49v-.97Z"/><path class="cls-1" d="m92.67,84.64h2.54v.95h-2.54v-.95Zm1.6,0h1.05v7.83h-1.05v-7.83Z"/><path class="cls-1" d="m100.01,92.57c-.52,0-.98-.1-1.37-.29-.4-.19-.7-.47-.92-.81-.22-.35-.33-.74-.33-1.17,0-.35.07-.68.2-.97s.33-.54.6-.75c.26-.21.57-.36.92-.44l.03.3c-.3-.08-.56-.22-.77-.4-.21-.18-.37-.4-.48-.65-.11-.25-.16-.52-.16-.81,0-.41.1-.76.29-1.07.2-.31.47-.55.81-.73s.73-.26,1.17-.26.83.09,1.17.26c.34.18.61.42.8.73.19.31.29.67.29,1.07,0,.29-.06.56-.16.81-.11.25-.27.47-.47.65-.21.18-.46.32-.76.4l.02-.3c.36.09.67.24.93.44.26.21.46.46.6.75.14.29.21.62.21.97,0,.44-.11.83-.33,1.17-.22.35-.52.62-.92.81-.39.2-.86.29-1.38.29m0-.96c.32,0,.59-.06.83-.19s.42-.29.56-.51c.14-.22.21-.47.21-.75s-.07-.53-.21-.75c-.14-.22-.33-.39-.56-.51s-.51-.19-.83-.19-.58.06-.82.19c-.24.12-.43.29-.57.51-.14.22-.21.47-.21.75s.07.54.21.75c.14.22.33.39.57.51.24.12.51.19.82.19m0-3.72c.38,0,.68-.12.92-.35.24-.23.36-.53.36-.9s-.12-.66-.36-.88c-.24-.23-.55-.34-.92-.34s-.67.11-.91.34c-.24.23-.36.52-.36.88s.12.67.36.9c.24.23.55.35.91.35"/><path class="cls-1" d="m107.74,84.64h1.06v7.83h-1.06v-7.83Zm.7,7.83v-.97h2.18c.58,0,1.09-.13,1.52-.38.44-.25.78-.6,1.02-1.04.24-.44.37-.95.37-1.53s-.12-1.08-.37-1.52c-.25-.44-.59-.79-1.03-1.04-.44-.25-.94-.37-1.51-.37h-2.17v-.97h2.19c.57,0,1.1.1,1.58.29s.91.47,1.26.82c.36.35.64.77.84,1.24.2.47.3.99.3,1.56s-.1,1.07-.3,1.55c-.2.48-.48.89-.83,1.25-.35.35-.77.63-1.26.82-.48.19-1.01.29-1.57.29h-2.22Z"/><path class="cls-1" d="m116.76,84.64h1.06v7.83h-1.06v-7.83Zm.72,0h4.43v.97h-4.43v-.97Zm0,3.36h4.12v.93h-4.12v-.93Zm0,3.5h4.49v.97h-4.49v-.97Z"/><path class="cls-1" d="m128.24,92.57c-.45,0-.85-.09-1.19-.26-.34-.18-.62-.41-.84-.72l.74-.69c.14.21.32.37.54.49.21.11.45.17.72.17s.5-.06.7-.17c.2-.11.36-.28.48-.5.12-.22.17-.49.17-.82v-5.44h1.06v5.38c0,.52-.1.97-.31,1.35-.21.38-.49.68-.84.89-.36.21-.77.32-1.22.32"/><path class="cls-1" d="m135.98,92.57c-.58,0-1.1-.13-1.55-.39-.46-.26-.81-.62-1.08-1.07-.26-.45-.39-.97-.39-1.55v-4.93h1.06v4.9c0,.41.09.77.26,1.07.17.3.41.53.71.7.3.16.63.25,1,.25s.72-.08,1.01-.25c.29-.17.52-.4.69-.7.17-.3.25-.65.25-1.06v-4.92h1.07v4.94c0,.58-.13,1.09-.39,1.55-.26.45-.62.81-1.07,1.07-.45.26-.97.39-1.56.39"/><path class="cls-1" d="m141.43,92.46v-7.83h.74l.32,1.23v6.6h-1.06Zm5.41,0l-4.8-6.42.14-1.41,4.82,6.4-.15,1.42Zm0,0l-.32-1.16v-6.66h1.06v7.83h-.74Z"/><path class="cls-1" d="m150.11,84.64h1.06v7.83h-1.06v-7.83Zm.72,3.29h4.59v.97h-4.59v-.97Zm4.33-3.29h1.06v7.83h-1.06v-7.83Z"/><path class="cls-1" d="m162.32,92.57c-.56,0-1.07-.1-1.56-.31-.48-.21-.9-.5-1.26-.87-.36-.37-.64-.8-.84-1.29-.2-.49-.3-1.01-.3-1.57s.1-1.09.3-1.57.48-.91.84-1.28c.36-.37.77-.65,1.25-.86.48-.2.99-.31,1.55-.31s1.07.1,1.55.31c.48.2.9.49,1.26.86.36.37.64.8.85,1.29.2.49.3,1.01.3,1.58s-.1,1.08-.3,1.57c-.2.49-.48.92-.84,1.28-.36.37-.77.66-1.25.86-.48.21-.99.31-1.54.31m-.02-1.02c.56,0,1.06-.13,1.48-.39.42-.26.76-.62,1.01-1.07.25-.45.37-.98.37-1.56,0-.44-.07-.84-.21-1.2-.14-.36-.34-.68-.6-.95-.26-.27-.56-.48-.9-.63-.35-.15-.73-.22-1.15-.22-.56,0-1.05.13-1.47.38-.42.26-.76.61-1,1.06-.24.45-.37.97-.37,1.56,0,.44.07.84.21,1.21.14.37.33.69.59.96s.55.48.9.63c.35.15.73.22,1.15.22"/><path class="cls-1" d="m171.41,84.64h1.06v7.83h-1.06v-7.83Zm.7,7.83v-.97h2.18c.58,0,1.09-.13,1.52-.38.44-.25.78-.6,1.02-1.04.24-.44.37-.95.37-1.53s-.12-1.08-.37-1.52c-.25-.44-.59-.79-1.03-1.04-.44-.25-.94-.37-1.51-.37h-2.17v-.97h2.19c.57,0,1.1.1,1.58.29s.91.47,1.26.82c.36.35.64.77.84,1.24.2.47.3.99.3,1.56s-.1,1.07-.3,1.55c-.2.48-.48.89-.83,1.25-.35.35-.77.63-1.26.82-.48.19-1.01.29-1.57.29h-2.22Z"/><path class="cls-1" d="m180.43,84.64h1.06v7.83h-1.06v-7.83Zm.72,0h4.43v.97h-4.43v-.97Zm0,3.36h4.12v.93h-4.12v-.93Zm0,3.5h4.49v.97h-4.49v-.97Z"/><path class="cls-1" d="m190.2,84.64h2.54v.95h-2.54v-.95Zm1.6,0h1.05v7.83h-1.05v-7.83Z"/><path class="cls-1" d="m196.1,92.46l2.36-3.21.38-.2c-.09.15-.2.28-.33.39-.13.11-.28.2-.47.26-.18.06-.41.09-.67.09-.45,0-.87-.11-1.25-.33-.38-.22-.68-.52-.91-.91s-.34-.83-.34-1.31.12-.96.37-1.37c.25-.41.58-.74.99-.98.41-.24.87-.37,1.38-.37s.97.12,1.39.36c.41.24.74.56.98.97.24.4.36.85.36,1.36,0,.69-.24,1.38-.72,2.06l-2.3,3.19h-1.23Zm1.52-3.51c.31,0,.6-.08.85-.23s.45-.36.6-.62c.15-.26.22-.55.22-.86s-.07-.63-.22-.89c-.15-.26-.35-.46-.6-.61-.25-.15-.54-.22-.85-.22s-.6.07-.85.22c-.25.15-.45.36-.6.61-.15.26-.23.56-.23.89s.07.61.23.87c.15.26.35.46.61.61s.54.23.85.23"/><path class="cls-1" d="m204.28,92.57c-.53,0-1.01-.1-1.43-.29-.42-.19-.77-.47-1.05-.84l.72-.72c.17.26.41.47.72.63.3.15.64.23,1.02.23.35,0,.66-.07.93-.2.27-.14.48-.33.63-.57.15-.25.23-.54.23-.87s-.07-.64-.22-.88c-.15-.24-.35-.42-.6-.55-.25-.12-.53-.19-.83-.19s-.59.04-.84.11c-.25.07-.49.2-.72.38v-.68c.14-.16.29-.29.45-.38.17-.1.35-.17.56-.22.21-.05.46-.08.73-.08.54,0,1,.11,1.38.34.38.23.66.53.86.91.2.38.3.81.3,1.29s-.12.94-.37,1.33-.58.7-1.01.92-.92.33-1.47.33m-1.44-3.76l-.57-.57.35-3.61h.97l-.4,3.71-.35.47Zm-.01-3.24l-.21-.95h4.12v.95h-3.9Z"/><path class="cls-1" d="m211.44,92.57c-.52,0-.98-.12-1.39-.36-.41-.24-.74-.56-.98-.97-.24-.41-.36-.86-.36-1.35,0-.69.24-1.38.72-2.06l2.3-3.19h1.23l-2.36,3.21-.38.2c.09-.16.2-.29.33-.4.13-.11.29-.19.47-.25.19-.06.41-.09.67-.09.46,0,.87.11,1.25.33.37.22.67.52.9.9.23.38.34.82.34,1.32s-.12.95-.37,1.37c-.24.41-.58.74-.99.99-.42.25-.88.37-1.38.37m0-.99c.31,0,.6-.08.85-.23.25-.15.45-.36.6-.62.15-.26.22-.55.22-.87s-.07-.61-.22-.87c-.15-.26-.35-.46-.6-.61-.25-.15-.54-.22-.85-.22s-.6.07-.85.22c-.25.15-.45.36-.6.61-.15.26-.22.55-.22.87s.07.62.22.88c.15.26.35.47.6.62.25.15.54.23.85.23"/><path class="cls-1" d="m97.58,50.44c-1.41,0-2.61-.23-3.62-.69-1.01-.46-1.93-1.16-2.77-2.1l2.47-2.45c.55.63,1.16,1.12,1.83,1.47.67.35,1.45.52,2.34.52.81,0,1.43-.15,1.88-.44.44-.29.67-.69.67-1.21,0-.47-.14-.85-.44-1.14s-.68-.54-1.15-.75c-.48-.21-1-.41-1.58-.61-.57-.19-1.14-.42-1.71-.67-.57-.25-1.09-.57-1.56-.95-.48-.38-.86-.86-1.15-1.43s-.44-1.3-.44-2.17c0-1.05.25-1.96.76-2.71.51-.76,1.22-1.34,2.12-1.73s1.95-.59,3.13-.59,2.29.21,3.29.63c.99.42,1.81.99,2.46,1.72l-2.47,2.45c-.52-.53-1.04-.93-1.56-1.19-.52-.26-1.12-.39-1.78-.39s-1.19.12-1.58.38c-.39.25-.58.61-.58,1.08,0,.44.15.79.44,1.05.29.27.67.5,1.15.69.48.19,1,.39,1.57.58.57.19,1.14.42,1.71.68.57.26,1.09.59,1.56.98.48.4.86.9,1.15,1.5s.44,1.35.44,2.24c0,1.63-.58,2.91-1.74,3.84-1.16.93-2.77,1.39-4.82,1.39"/><rect class="cls-1" x="106.58" y="33.06" width="3.81" height="17.11"/><path class="cls-1" d="m118.48,50.44c-1.41,0-2.61-.23-3.62-.69-1.01-.46-1.93-1.16-2.77-2.1l2.47-2.45c.55.63,1.16,1.12,1.83,1.47.67.35,1.45.52,2.34.52.81,0,1.43-.15,1.88-.44.44-.29.67-.69.67-1.21,0-.47-.14-.85-.44-1.14s-.68-.54-1.15-.75c-.48-.21-1-.41-1.58-.61-.57-.19-1.14-.42-1.71-.67-.57-.25-1.09-.57-1.56-.95-.48-.38-.86-.86-1.15-1.43s-.44-1.3-.44-2.17c0-1.05.25-1.96.76-2.71.51-.76,1.22-1.34,2.12-1.73s1.95-.59,3.13-.59,2.29.21,3.29.63c.99.42,1.81.99,2.46,1.72l-2.47,2.45c-.52-.53-1.04-.93-1.56-1.19-.52-.26-1.12-.39-1.78-.39s-1.19.12-1.58.38c-.39.25-.58.61-.58,1.08,0,.44.15.79.44,1.05.29.27.67.5,1.15.69.48.19,1,.39,1.57.58.57.19,1.14.42,1.71.68.57.26,1.09.59,1.56.98.48.4.86.9,1.15,1.5s.44,1.35.44,2.24c0,1.63-.58,2.91-1.74,3.84-1.16.93-2.77,1.39-4.82,1.39"/><path class="cls-1" d="m125.67,33.06h14.52v3.32h-14.52v-3.32Zm5.36.24h3.8v16.87h-3.8v-16.87Z"/><path class="cls-1" d="m142.33,33.06h3.81v17.11h-3.81v-17.11Zm2.91,0h9.26v3.27h-9.26v-3.27Zm0,6.79h8.53v3.18h-8.53v-3.18Zm0,7.03h9.38v3.3h-9.38v-3.3Z"/><polygon class="cls-1" points="157.23 50.17 157.23 33.06 159.95 33.06 166.68 43.56 165.3 43.56 172.02 33.06 174.75 33.06 174.75 50.17 170.95 50.17 170.95 39.48 171.63 39.65 167.24 46.49 164.72 46.49 160.36 39.65 161.01 39.48 161.01 50.17 157.23 50.17"/><path class="cls-1" d="m176.74,50.17l6.79-17.11h3.44l6.71,17.11h-4.02l-5.14-14.2h1.38l-5.21,14.2h-3.95Zm3.85-6.2h9.33v3.1h-9.33v-3.1Z"/><path class="cls-1" d="m100.56,73.95c-1.28,0-2.46-.22-3.55-.67-1.09-.44-2.04-1.07-2.86-1.88-.82-.81-1.45-1.75-1.9-2.82-.45-1.07-.68-2.23-.68-3.48s.23-2.4.68-3.48c.45-1.07,1.08-2.01,1.89-2.8.81-.79,1.76-1.41,2.85-1.85,1.09-.44,2.27-.67,3.55-.67,1.36,0,2.56.22,3.62.65,1.06.44,1.98,1.04,2.78,1.79l-2.55,2.57c-.45-.48-1-.86-1.64-1.14-.64-.27-1.38-.41-2.22-.41-.74,0-1.43.12-2.05.38-.62.25-1.16.61-1.6,1.08-.44.47-.79,1.04-1.04,1.7-.25.66-.38,1.39-.38,2.18s.12,1.54.38,2.21c.25.66.6,1.23,1.04,1.7.44.47.98.83,1.6,1.09.62.26,1.3.39,2.05.39.87,0,1.63-.14,2.28-.41.65-.27,1.2-.65,1.67-1.14l2.57,2.57c-.82.76-1.77,1.36-2.82,1.79-1.06.44-2.28.65-3.67.65"/><path class="cls-1" d="m109.14,56.57h3.81v17.11h-3.81v-17.11Zm2.91,0h8.94v3.27h-8.94v-3.27Zm0,7.13h8.56v3.27h-8.56v-3.27Z"/><path class="cls-1" d="m131.42,73.97c-1.28,0-2.46-.23-3.56-.68-1.1-.45-2.06-1.08-2.87-1.89-.82-.81-1.45-1.75-1.91-2.82-.46-1.07-.69-2.23-.69-3.48s.23-2.42.68-3.49c.45-1.07,1.09-2,1.9-2.8.82-.8,1.77-1.42,2.86-1.87,1.09-.45,2.27-.67,3.55-.67s2.49.22,3.58.67c1.09.44,2.04,1.07,2.86,1.87.82.8,1.45,1.74,1.9,2.81.45,1.08.68,2.24.68,3.5s-.23,2.4-.68,3.48c-.45,1.08-1.09,2.01-1.9,2.81-.82.8-1.76,1.43-2.85,1.88-1.08.45-2.26.68-3.54.68m-.05-3.47c1.04,0,1.93-.23,2.69-.68.76-.45,1.35-1.09,1.78-1.9.43-.82.64-1.76.64-2.82,0-.81-.12-1.54-.36-2.19-.24-.65-.59-1.22-1.04-1.7-.45-.48-.99-.84-1.61-1.09-.62-.25-1.32-.38-2.1-.38-1.02,0-1.91.22-2.67.67-.76.44-1.35,1.07-1.78,1.87-.43.8-.64,1.74-.64,2.82,0,.81.12,1.54.36,2.21.24.66.59,1.23,1.04,1.71.45.48.99.84,1.61,1.1.62.26,1.31.39,2.07.39m7.68,4.53l-8-8,2.21-2.21,8,8-2.21,2.21Z"/><polygon class="cls-1" points="142.03 75.02 147.97 55.38 151.2 55.38 145.26 75.02 142.03 75.02"/><path class="cls-1" d="m160.55,73.95c-1.28,0-2.46-.22-3.55-.67-1.09-.44-2.04-1.07-2.86-1.88-.82-.81-1.45-1.75-1.9-2.82-.45-1.07-.68-2.23-.68-3.48s.23-2.4.68-3.48c.45-1.07,1.08-2.01,1.89-2.8.81-.79,1.76-1.41,2.85-1.85,1.09-.44,2.27-.67,3.55-.67,1.36,0,2.56.22,3.62.65,1.06.44,1.98,1.04,2.78,1.79l-2.55,2.57c-.45-.48-1-.86-1.64-1.14-.64-.27-1.38-.41-2.22-.41-.74,0-1.43.12-2.05.38-.62.25-1.16.61-1.6,1.08-.44.47-.79,1.04-1.04,1.7-.25.66-.38,1.39-.38,2.18s.12,1.54.38,2.21c.25.66.6,1.23,1.04,1.7.44.47.98.83,1.6,1.09.62.26,1.3.39,2.05.39.87,0,1.63-.14,2.28-.41.65-.27,1.2-.65,1.67-1.14l2.57,2.57c-.82.76-1.77,1.36-2.82,1.79-1.06.44-2.28.65-3.67.65"/><path class="cls-1" d="m169.13,56.57h3.81v17.11h-3.81v-17.11Zm2.91,10.06v-2.81h3.61c.76,0,1.35-.19,1.76-.58.41-.39.62-.91.62-1.58,0-.61-.2-1.12-.61-1.53s-.99-.61-1.74-.61h-3.64v-2.96h4.07c1.13,0,2.12.21,2.98.64.86.43,1.53,1.02,2.01,1.78.49.76.73,1.63.73,2.62s-.24,1.88-.73,2.63c-.48.75-1.16,1.34-2.04,1.76-.87.42-1.9.63-3.08.63h-3.95Zm6.4,7.05l-5.33-7.37,3.49-.95,6.35,8.31h-4.51Z"/><path class="cls-1" d="m192.69,73.97c-1.28,0-2.46-.23-3.56-.68-1.1-.45-2.06-1.08-2.87-1.89-.82-.81-1.45-1.75-1.91-2.82-.46-1.07-.69-2.23-.69-3.48s.23-2.42.68-3.49c.45-1.07,1.09-2,1.9-2.8.82-.8,1.77-1.42,2.86-1.87,1.09-.45,2.27-.67,3.55-.67s2.49.22,3.58.67c1.09.44,2.04,1.07,2.86,1.87.82.8,1.45,1.74,1.9,2.81.45,1.08.68,2.24.68,3.5s-.23,2.4-.68,3.48c-.45,1.08-1.09,2.01-1.9,2.81-.82.8-1.76,1.43-2.85,1.88-1.08.45-2.26.68-3.54.68m-.05-3.47c1.04,0,1.93-.23,2.69-.68.76-.45,1.35-1.09,1.78-1.9.43-.82.64-1.76.64-2.82,0-.81-.12-1.54-.36-2.19-.24-.65-.59-1.22-1.04-1.7-.45-.48-.99-.84-1.61-1.09-.62-.25-1.32-.38-2.1-.38-1.02,0-1.91.22-2.67.67-.76.44-1.35,1.07-1.78,1.87-.43.8-.64,1.74-.64,2.82,0,.81.12,1.54.36,2.21.24.66.59,1.23,1.04,1.71.45.48.99.84,1.61,1.1.62.26,1.31.39,2.07.39m7.68,4.53l-8-8,2.21-2.21,8,8-2.21,2.21Z"/><path class="cls-1" d="m208.32,73.97c-.7,0-1.38-.09-2.05-.27-.67-.18-1.29-.43-1.87-.76-.57-.33-1.06-.71-1.47-1.15l2.11-2.13c.39.42.85.75,1.38.98.53.23,1.12.35,1.74.35.44,0,.77-.07,1.01-.19.23-.13.35-.31.35-.53,0-.29-.14-.51-.42-.67-.28-.15-.64-.29-1.08-.41-.44-.12-.9-.26-1.38-.4-.49-.15-.94-.35-1.38-.61-.44-.26-.79-.62-1.07-1.08-.27-.46-.41-1.05-.41-1.76,0-.76.19-1.42.58-1.98.39-.56.94-1,1.65-1.32.71-.32,1.54-.49,2.5-.49,1,0,1.93.17,2.78.52.85.35,1.54.86,2.07,1.54l-2.11,2.13c-.37-.44-.79-.74-1.25-.92-.46-.18-.91-.27-1.35-.27s-.74.06-.94.18c-.21.12-.32.3-.32.52,0,.24.14.44.41.58.27.15.63.27,1.07.39.44.11.9.25,1.38.41.48.16.94.38,1.38.65.44.27.79.64,1.07,1.1.27.46.41,1.06.41,1.81,0,1.15-.43,2.06-1.3,2.74-.86.68-2.03,1.02-3.5,1.02"/><path class="cls-1" d="m39.33,54.39H10.22c-5.08,0-9.19,4.12-9.19,9.2s4.12,9.19,9.19,9.19h26.05c-.34-.37-.72-.83-1.09-1.4-.33-.51-.59-.99-.78-1.42H11.76c-4.22,0-7.64-2.16-7.64-6.37s3.42-6.38,7.64-6.38h26.8c-.02-.4,0-1.01.23-1.72.15-.47.36-.84.54-1.1"/><path class="cls-1" d="m51.14,69.96c-.15.45-.35.96-.62,1.5-.25.5-.51.94-.76,1.32h30.58v-2.82h-29.21Z"/><path class="cls-1" d="m63.78,54.39c-.14.36-.49,1.11-1.29,1.54-.39.21-.74.26-1.1.32-.67.1-1.3.05-2.26-.04-.13-.01-.24-.02-.31-.03-.08.39-.27.75-.56,1.03h22.08v-2.82h-16.56Z"/><path class="cls-1" d="m17.97,52.54h21.95s1.18-2.9-.13-5.41c-.15-.29-1.75-1.46-4.71-1.46-9.07,0-7.86,4.75-17.07,1.94-1.21,1.87-.18,4.7-.04,4.94"/><path class="cls-1" d="m21,37.24h0c.1-.07.2-.14.31-.21-.1.07-.21.14-.31.21"/><path class="cls-1" d="m80.35,52.54c0-.15-.06-.3-.18-.41-.66-.59-2.58-2.25-5.43-4.38l4.62-1.62c.32-.1.54-.38.56-.71l.32-4.98c.02-.33-.17-.64-.47-.78l-4.26-1.91c-.09-1.38-.26-2.73-.5-4.07l3.68-3.01c.26-.21.35-.56.25-.87l-1.61-4.72c-.11-.31-.4-.53-.73-.54l-4.68-.14c-.61-1.23-1.29-2.43-2.04-3.57l2.25-4.21c.16-.29.11-.65-.1-.9l-3.3-3.74c-.22-.25-.57-.34-.88-.22l-4.39,1.67c-1.02-.89-2.09-1.72-3.21-2.49l.47-4.77c.03-.33-.14-.64-.44-.79l-4.48-2.2c-.3-.15-.65-.09-.89.14l-3.43,3.23c-1.28-.43-2.59-.78-3.93-1.07l-1.4-4.61c-.1-.32-.38-.54-.71-.56L40.45,0c-.33-.02-.64.16-.77.47l-1.94,4.33c-1.35.09-2.68.26-3.99.5l-3.06-3.74c-.21-.26-.56-.36-.87-.25l-4.72,1.61c-.31.11-.53.4-.54.73l-.14,4.76c-1.2.6-2.37,1.27-3.49,1.99l-4.29-2.29c-.29-.16-.65-.11-.9.1l-3.74,3.3c-.25.22-.33.57-.22.88l1.7,4.48c-.87,1-1.68,2.04-2.44,3.14l-4.85-.48c-.33-.03-.64.14-.79.44l-2.2,4.48c-.15.3-.09.65.14.89l3.29,3.49c-.42,1.25-.77,2.54-1.05,3.85l-4.68,1.42c-.32.1-.54.38-.56.71L.01,39.79c-.02.33.16.64.47.77l4.38,1.96c.09,1.33.25,2.65.49,3.94l-3.77,3.09c-.26.21-.35.56-.25.87l.72,2.11h14.78c-.27-1.07-.4-2.17-.4-3.29,0-4.31,2.03-8.34,5.44-10.8.09-.07.18-.13.27-.19h0s0-.01,0-.01c2.01-1.4,4.17-2.49,6.41-3.22,1.17-.38,1.96-1.45,1.96-2.66v-2.08h3.23v1.09c0,1.34,1.11,2.43,2.48,2.43,4.64,0,9.64.91,14.86,2.71,4.29,1.47,8.76,3.55,13.28,6.17,6.26,3.64,11.13,7.46,13.42,9.38-9.56-6.37-24.52-12.8-33.08-12.8-1.95,0-3.2.42-3.93,1.33-.38.47-.78,1.29-.53,2.52.03.15.08.3.15.44.15.32.29.66.41.99.56,1.5.84,3.09.84,4.71,0,1.12-.14,2.23-.4,3.29h1.53c.24-1.06.36-2.16.36-3.29,0-1.84-.33-3.6-.93-5.23-.14-.38-.29-.74-.46-1.11-.02-.04-.03-.07-.04-.11-.2-1,.11-2.06,3.01-2.06,5.07,0,12.74,2.44,20.11,5.84-.31.86-.71,1.84-.92,2.07-.04,1.41.22,2.02-.78,2.79-.15.37-.37.73-.59,1.09h13.28c-.08-.05-.08-.05,0,0h4.53Zm-12.92-14.63c-.33,1.42-1.87,2.33-2.35,3.45,0,0,0,0,0,0-8.05-4.67-18.39-9.05-28.83-9.05-.55,0-1-.42-1-.94v-1.42c0-.64-.55-1.16-1.22-1.16h-3.78c-.67,0-1.21.51-1.21,1.14v2.43c0,.56-.37,1.06-.93,1.25-1.9.62-3.78,1.49-5.62,2.64-.13-.24-.41-.23-1.24.22-2.37.4-1.02.04-2.8,1.22-2.66-1.5-2.5.56-4.5-1.43-.76.4-1.74.21-2.23-.58-.51-.12-1.1.11-1.39-.71.28-1.3-1.32-1.82-1.4-3.06,1.43-3.1,1.82-5.14,5.72-5.9,2.47.34,1.29-4.47.74-5.59-.26-1.14.57-1.84.26-2.77.54-1.41,2.94-1.05,4.04-1.23,1.16.04,1.15,1.63,2.17,1.73.77-.39,3.19-.74,2.41-1.86-.25-1.58-.89-4.68,1.77-2.75.74.24.56-.48,1.45-.53,1.01.19,1.39-.6,2.23-.81.28-1.23,1.53-1.11,2.05-.45.18.94.19.98.77,1.7.48,1.25-.34,1.14-.43,2,0,.64.42,1.65,1.05,1.99,1.12-.7,2.43-.94,3.58-.92.49-.63,1.1-.84,2.06-.84.81-.08,1.19.45,1.61.93,1.71.05,2.03-1.59,2.54-2.45.41-.78,1.3-2.25,2.22-1.37,1.19,1.11,1.06,3.67,2.45,4.37-.13,2.31,2.25,2.81,4.06,3.21,1.54.6,3.7.55,4.32,2.33.4.69,1.4-.3,2.09.37,3.2,1.42,4.85-.58,7.9,2.84,2.63,2.35,4.55-.05,5.21,4.59.69,3.04-1.7,5.64-3.77,7.44Z"/><path class="cls-1" d="m62.76,52.16c-.07.13-.15.25-.23.38h-.26c-.11.13-.21.28-.29.47,0,0,0,0,0,.01-.03.08-.06.16-.08.25-.86,1.2-2.61.04-3.6.7-.07.05-.13.11-.2.16-.02.02-.04.03-.06.05-.04.04-.08.07-.12.1-.02.02-.04.03-.06.05-.04.03-.07.06-.1.09-.02.02-.04.03-.06.05-.03.03-.07.06-.1.09-.01.01-.03.03-.04.04-.03.03-.07.06-.1.09-.01,0-.02.02-.03.03-.04.04-.08.08-.12.11,0,0,0,0,0,0-.51.49-.72.79-1.06.97,0,0,0,0,0,0-.02.01-.05.02-.07.04,0,0,0,0,0,0-.02.01-.05.02-.08.03,0,0,0,0,0,0-.14.06-.3.1-.5.14,0,0,0,0,0,0-.04,0-.08.01-.12.02,0,0-.01,0-.02,0-.04,0-.08.01-.12.02,0,0-.02,0-.03,0-.04,0-.09.01-.13.02,0,0-.01,0-.02,0-.05,0-.1.01-.15.02-.25.03-.53.05-.88.08-4.18,4.23-1.56,3.52-2.6,8.19-.37,2.29-2.72,3.23-2.86,5.62-.76,2.55-1.88,3.39-2.93,4.75,0,0,0,.01-.01.02-.06.07-.11.15-.17.23-.01.02-.02.03-.03.05-.12.17-.24.35-.36.54-.01.02-.03.04-.04.07-.05.08-.1.16-.14.24-.01.02-.02.04-.03.06-.06.1-.11.21-.17.32-.01.02-.02.05-.03.07-.04.09-.09.18-.13.28-.02.03-.03.07-.04.1-.05.12-.11.24-.16.37-.09.1-.17.19-.25.27-.03.03-.05.05-.08.08-.05.05-.1.11-.15.16-.03.03-.05.05-.08.08-.04.04-.09.08-.13.11-.03.02-.05.04-.08.07-.04.03-.07.06-.11.09-.02.02-.05.03-.07.05-.03.02-.07.04-.1.06-.02.01-.04.03-.07.04-.03.02-.06.03-.09.04-.02,0-.04.02-.06.02-.03,0-.05.02-.08.02-.02,0-.04,0-.05,0-.02,0-.05,0-.07,0-.02,0-.03,0-.05,0-.02,0-.04,0-.06-.01-.01,0-.03,0-.04-.01-.02,0-.04-.02-.06-.03-.01,0-.02-.01-.03-.02-.02-.01-.04-.03-.05-.05,0,0-.02-.02-.03-.03-.02-.02-.03-.04-.05-.06,0-.01-.01-.02-.02-.03-.02-.03-.03-.05-.04-.08,0-.01-.01-.02-.02-.03-.01-.03-.03-.07-.04-.11,0,0,0-.02-.01-.03-.01-.04-.02-.09-.03-.14,0,0,0,0,0-.01-.19-.84-.07-2.28-.27-3.04-.02-.08-.04-.15-.07-.21-.84-.66-1.96-1.75-2.61-2.64-.46.17-1.36.29-1.5-.79-1.75-1.78-3.16-2.25-.48-4.48.71-3.12,3.42-3.46,4.34-5.35-.19-2.49-1.84-1.57-1.14-4.66.06-.09.12-.18.17-.27.08-.12.16-.24.23-.36,0,0,.01-.02.02-.03.4-.65.77-1.34,1.11-2.05,0,0,0,0,0,0,.1-.23.21-.46.3-.69.01-.03.02-.06.04-.09.08-.2.16-.4.24-.61,0-.04.01-.09.02-.13h-1.49l-.03.07c-.09.22-.18.43-.27.62v.03c-.31.63-.64,1.25-1,1.83v.02c-.06.07-.1.14-.15.22l-.16.24s-.05.07-.07.11l-.19.29-.1.4c-.52,2.33-.1,3.46.76,4.53.05.06.09.11.13.16-.23.22-.53.45-.84.69-1,.77-2.37,1.82-3.04,3.91-.79.71-1.69,1.71-1.72,3.13-.03,1.54.89,2.41,1.79,3.24.12.12.25.23.38.36.18.48.46.89.81,1.17.4.31.86.47,1.4.45.52.61,1.17,1.26,1.83,1.83.01.22.02.48.03.68.02.64.04,1.3.18,1.91v.06c.03.09.06.17.08.24,0,.03.02.06.03.09.03.08.05.16.08.24.02.04.03.08.04.09.04.09.08.18.12.25.02.04.04.08.07.11v.02c.07.08.12.16.18.23.03.04.07.08.1.11.07.07.14.14.21.2l.02.02s.09.06.14.09c.08.05.17.09.25.13.06.02.11.04.16.05.09.02.18.04.27.05.05,0,.1,0,.17,0,.07,0,.15,0,.23-.02.05,0,.09-.02.16-.03.06-.02.13-.03.2-.06.04-.02.09-.03.14-.05.05-.02.11-.05.18-.09.04-.02.08-.04.12-.07.05-.03.11-.07.18-.12.03-.02.07-.05.1-.07.05-.04.11-.09.17-.14.03-.03.07-.05.1-.08.05-.04.1-.09.17-.15l.02-.02s.06-.05.09-.08c.06-.06.12-.12.18-.18l.09-.1c.09-.1.19-.2.29-.32l.18-.21.13-.31c.04-.1.08-.2.13-.3l.04-.08c.03-.07.07-.15.1-.22l.03-.05c.04-.09.09-.17.13-.25l.03-.05c.04-.07.07-.13.11-.19l.04-.06c.09-.15.19-.29.29-.43l.02-.03c.05-.06.09-.12.14-.18l.02-.03c.2-.26.41-.51.64-.77.88-1.03,1.88-2.2,2.58-4.58l.07-.23.02-.27c.03-.55.41-1.04,1.01-1.8.68-.86,1.52-1.92,1.8-3.5.45-2.04.3-3.32.21-4.16-.07-.57-.06-.59,0-.72.17-.41.69-1.05,1.52-1.93.16-.02.31-.03.44-.05.06,0,.11-.01.16-.02h.03c.05-.01.1-.02.14-.02h.04s.09-.02.14-.03h.03s.09-.02.14-.03h.04c.27-.06.49-.13.7-.21l.15-.07s.09-.04.13-.06l.05-.03c.4-.23.68-.52.97-.82.09-.1.2-.21.33-.34l.71-.64.08-.06c.15-.04.54,0,.78.03.89.09,2.22.22,3.19-1.11l.21-.29.09-.36c.06-.06.22-.18.3-.24l2.08-1.57h-2.81Z"/></g></svg>